<svg xmlns="http://www.w3.org/2000/svg" fill="none" viewBox="0 0 112 71"><path fill="#231F20" d="M75.952.003H36.048a35.652 35.652 0 0 0-13.76 2.567 35.589 35.589 0 0 0-11.701 7.664 35.496 35.496 0 0 0-7.834 11.573 35.43 35.43 0 0 0 0 27.386 35.496 35.496 0 0 0 7.834 11.573 35.589 35.589 0 0 0 11.702 7.664 35.652 35.652 0 0 0 13.759 2.567h39.904c4.712.062 9.389-.811 13.76-2.567a35.589 35.589 0 0 0 11.701-7.664 35.499 35.499 0 0 0 7.834-11.573 35.438 35.438 0 0 0-7.834-38.96A35.589 35.589 0 0 0 89.711 2.57 35.652 35.652 0 0 0 75.952.003Zm.16 61.645a26.254 26.254 0 0 1-14.564-4.404A26.164 26.164 0 0 1 51.89 45.51a26.096 26.096 0 0 1-1.494-15.11 26.132 26.132 0 0 1 7.172-13.392 26.23 26.23 0 0 1 13.42-7.159 26.266 26.266 0 0 1 15.145 1.488A26.198 26.198 0 0 1 97.9 20.967a26.11 26.11 0 0 1-3.257 33.02 26.242 26.242 0 0 1-18.53 7.661Z"/><circle cx="76.5" cy="35.5" r="26.5" fill="#F5F5F5"/></svg>