<svg width="32" height="32" viewBox="0 0 32 32" xmlns="http://www.w3.org/2000/svg">
  <g clip-path="url(#clip0_795_8668)">
    <path fill-rule="evenodd" clip-rule="evenodd"
      d="M16.0203 3.24705C12.4681 3.24705 10.3012 3.33832 8.31614 3.45984C5.9674 3.60362 3.97889 5.87082 4.13018 8.24701C4.25499 10.2074 4.46793 12.3495 4.83078 15.9258C5.28035 20.3571 5.68334 23.4005 6.00261 25.449C6.28653 27.2704 7.62147 28.5098 9.34393 28.6023C10.9291 28.6873 13.0991 28.7529 16.0203 28.7529C19.0181 28.7529 21.2247 28.6839 22.82 28.5955C24.4594 28.5048 25.7486 27.3132 26.036 25.5618C26.2039 24.5383 26.3984 23.2734 26.5872 21.7132C26.4163 21.7143 26.2373 21.7123 26.0512 21.7063C24.4904 21.6564 22.3765 21.3287 20.2455 20.1902C18.119 19.0541 16.7438 17.5495 15.8999 16.3241C15.4782 15.7117 15.1865 15.1654 14.9967 14.7619C14.9016 14.5597 14.8316 14.3924 14.7832 14.269C14.759 14.2073 14.7401 14.1565 14.7262 14.1178C14.7192 14.0984 14.7135 14.082 14.709 14.0688C14.7067 14.0622 14.7047 14.0563 14.703 14.0513L14.7007 14.0444L14.6992 14.0399C14.699 14.0393 14.6988 14.0386 16.2414 13.5324L14.6988 14.0386C14.4193 13.1866 14.8833 12.2694 15.7352 11.9898C16.5838 11.7114 17.4971 12.1706 17.7806 13.016C17.781 13.0171 17.7816 13.0188 17.7824 13.021C17.7859 13.0308 17.7936 13.0517 17.8057 13.0826C17.8301 13.1446 17.8722 13.2463 17.9348 13.3796C18.0605 13.6467 18.2666 14.0358 18.5742 14.4825C19.1891 15.3753 20.1984 16.4836 21.7756 17.3262C23.3482 18.1663 24.9381 18.422 26.1549 18.4609C26.4497 18.4703 26.7196 18.4669 26.9583 18.4565C27.0056 18.0417 27.0496 17.6379 27.0992 17.1825C27.1393 16.8135 27.1832 16.4106 27.2355 15.9403C27.3935 14.5211 27.8706 9.80529 27.9917 7.82418C28.1221 5.68873 26.3018 3.6302 24.1422 3.48652C22.1209 3.35202 19.8295 3.24705 16.0203 3.24705ZM30.0315 20.1054C30.0467 19.9817 30.064 19.8412 30.0792 19.7159C30.1751 18.9308 30.2455 18.2838 30.3297 17.5107C30.3696 17.1446 30.4125 16.7503 30.4627 16.2995C30.6209 14.8776 31.1063 10.0913 31.2327 8.02215C31.4736 4.07881 28.2749 0.507302 24.3578 0.246624C22.2641 0.107305 19.9007 0 16.0203 0C12.4009 0 10.1679 0.0933533 8.11776 0.218872C3.94825 0.474121 0.626054 4.31224 0.889674 8.45329C1.01915 10.4868 1.23914 12.694 1.60027 16.2536C2.05425 20.7279 2.46414 23.8305 2.79432 25.949C3.29604 29.1681 5.7983 31.6637 9.16996 31.8447C10.8228 31.9333 13.0518 32 16.0203 32C19.0666 32 21.3341 31.9298 22.9995 31.8376C26.29 31.6555 28.7281 29.2086 29.2402 26.0875C29.4801 24.6256 29.7739 22.6762 30.0315 20.1054Z"
    />
  </g>
  <defs>
    <clipPath id="clip0_795_8668">
      <rect width="32" height="32" />
    </clipPath>
  </defs>
</svg>
  