<?xml version="1.0" encoding="UTF-8"?>
<svg id="Layer_1" xmlns="http://www.w3.org/2000/svg" version="1.1" viewBox="0 0 244 248">
  <!-- Generator: Adobe Illustrator 29.1.0, SVG Export Plug-In . SVG Version: 2.1.0 Build 142)  -->
  <path d="M215.6,172.7l-13.4-13.4c-2.4-2.4-6.4-2.4-8.8,0l-13.4,13.4c-2.4,2.4-2.4,6.4,0,8.8l13.4,13.4c2.4,2.4,6.4,2.4,8.8,0l13.4-13.4c2.4-2.4,2.4-6.4,0-8.8Z"/>
  <path d="M142.8,159.3l-13.4,13.4c-2.4,2.4-2.4,6.4,0,8.8l13.4,13.4c2.4,2.4,6.4,2.4,8.8,0l13.4-13.4c2.4-2.4,2.4-6.4,0-8.8l-13.4-13.4c-2.4-2.4-6.4-2.4-8.8,0Z"/>
  <path d="M242,18.5h-.1c-2.4-8.1-43.9-16.5-94.8-16.5S54.7,10.4,52.3,18.5h-.1v.3c0,.1,0,.3,0,.4,0,.3,0,.7.2,1l2.4,20.3s0,0,0,0c-6.8,5-16.3,12.1-25.3,20.1C5,82.4-3.6,98.5,3.3,110c4.2,7,12.1,10.5,23.9,10.5s21.6-2.3,36.3-6.8c0,0,0,0,0,0l.9,7.4c.1,1,.6,1.9,1.3,2.6,0,0,16.9,16.7,18.1,18.1,1.1,1.4,1.5,1.8,2.4,3.2,1.1,1.5,1.4,2.6,1.4,2.6.8,1.4.7,3,0,4.4,0,0-.9,1.7-1.4,2.5-.5.8-1.5,1.9-2.3,2.7l-16.4,16.6c-1.7,1.7-1.7,4.5,0,6.2l16.2,16.2c1.1,1.2,1.9,2.4,2.7,3.7l1.5,2.9c.7,1.4.6,3-.2,4.3l-1.5,2.4c-.7,1-1.4,1.8-2.3,2.8l-10.9,11c-1.7,1.7-1.7,4.5,0,6.2l15.7,15.7c1.7,1.7,4.6,1.7,6.3,0l15.7-15.7c1.7-1.7,1.7-4.5,0-6.2l-10.9-11c-.8-.9-1.6-1.8-2.3-2.8l-1.5-2.4c-.8-1.3-.9-2.9-.2-4.3l1.5-2.9c.8-1.4,1.6-2.5,2.7-3.7l16.2-16.2c1.7-1.7,1.7-4.5,0-6.2l-16.5-16.6c-.8-.8-1.4-1.4-2.3-2.8-.9-1.4-1.4-2.5-1.4-2.5-.8-1.3-.8-2.9-.1-4.3,0,0,.7-1.7,1.5-2.9,1-1.4,1.6-2.5,2.6-3.6l16.2-16.2c1.7-1.7,4.6-1.7,6.3,0l21.4,21.5c1.7,1.7,4.5,1.7,6.2,0l21.3-21.3c1.7-1.7,4.6-1.7,6.3,0l21.2,21.3c1.7,1.7,4.5,1.7,6.2,0l21.3-21.4c1.7-1.7,1.7-4.6,0-6.3l-21.4-21.4c-1.7-1.7-1.7-4.6,0-6.3l31-31c.7-.7,1.1-1.6,1.3-2.6l4.5-37.2c.1-.3.2-.7.2-1s0-.3,0-.4v-.3s0,0,0,0ZM149.2,65.9c-10.9,6-51.6,27.8-88.8,37.9-35.7,11-45.7,5.4-48.4.8-1.4-2.3-3.6-11.6,24.2-36.1,6.8-6,14-11.7,20-16.1,0,0,0,0,0,0l4.9,40.5s0,0,0,0c6.2-1.8,12.9-4,19.9-6.6,28.1-10.5,53.7-24.1,63.4-29.5,2.6-1.4,5.9-.4,7.2,2.4,1.1,2.5,0,5.4-2.4,6.7h0ZM147.1,31.3c-66.1,0-81.5-6.7-80.5-9.9.9-2.8,36-8.3,80.5-8.3s79.7,5.4,80.5,8.3c.8,3-14.4,9.9-80.5,9.9Z"/>
</svg>