<svg version="1.0" xmlns="http://www.w3.org/2000/svg" viewBox="2.787 0.659 997.218 1088.843" width="997.218" height="1088.843">
  <g transform="matrix(0.074253, 0, 0, -0.074008, -92.628403, 1137.310669)">
    <path d="M7818 15345 c-123 -17 -228 -46 -343 -94 -49 -21 -637 -345 -1305
-721 -668 -375 -1487 -836 -1820 -1023 -333 -187 -1021 -574 -1530 -860 -509
-286 -954 -540 -990 -565 -88 -62 -254 -230 -316 -322 -100 -146 -171 -315
-211 -500 -17 -81 -18 -230 -18 -3260 0 -3030 1 -3179 18 -3260 74 -345 271
-647 541 -830 39 -26 415 -241 836 -477 5223 -2936 4715 -2652 4840 -2701 153
-60 296 -85 480 -86 220 0 411 44 594 136 44 22 737 409 1540 860 804 452
2006 1127 2671 1500 1374 772 1304 731 1410 813 244 189 406 449 477 766 l23
104 0 3175 c0 3030 -1 3179 -18 3260 -59 277 -190 516 -383 700 -139 132 45
25 -2424 1412 -289 162 -835 470 -1215 683 -379 213 -998 561 -1375 773 -377
212 -721 400 -765 419 -115 50 -231 81 -362 98 -135 18 -223 18 -355 0z m538
-3520 c509 -48 965 -183 1420 -420 374 -194 691 -433 1003 -758 85 -88 271
-307 271 -319 0 -8 -83 -58 -430 -258 -274 -158 -529 -306 -804 -466 l-159
-93 -101 96 c-176 166 -355 292 -552 391 -415 207 -871 282 -1324 216 -244
-35 -440 -97 -676 -214 -661 -327 -1108 -945 -1220 -1690 -24 -159 -24 -464 0
-620 74 -483 276 -895 610 -1247 269 -284 682 -520 1077 -617 673 -164 1382
-6 1929 431 41 33 116 98 166 146 l91 86 104 -61 c118 -68 178 -103 809 -468
250 -144 461 -268 469 -275 21 -20 -108 -175 -334 -400 -334 -334 -637 -551
-1040 -746 -396 -190 -790 -303 -1265 -361 -140 -17 -659 -17 -805 0 -908 108
-1701 492 -2327 1128 -427 435 -713 897 -908 1469 -266 783 -267 1657 -2 2445
382 1135 1274 2031 2407 2417 256 87 578 158 830 182 61 6 126 13 145 14 104
10 475 5 616 -8z m3484 -2545 l0 -320 320 0 320 0 0 320 0 320 320 0 320 0 0
-320 0 -320 320 0 320 0 0 -320 0 -320 -320 0 -320 0 0 -320 0 -320 320 0 320
0 0 -320 0 -320 -320 0 -320 0 0 -320 0 -320 -320 0 -320 0 0 320 0 320 -320
0 -320 0 0 -320 0 -320 -320 0 -320 0 0 320 0 320 -320 0 -320 0 0 320 0 320
320 0 320 0 0 320 0 320 -320 0 -320 0 0 320 0 320 320 0 320 0 0 320 0 320
320 0 320 0 0 -320z"></path>
    <path d="M11840 8000 l0 -320 320 0 320 0 0 320 0 320 -320 0 -320 0 0 -320z"></path>
  </g>
</svg>