<svg width="594" height="515" viewBox="0 0 594 515" xmlns="http://www.w3.org/2000/svg">
  <path
    d="M113.597 391.544C193.96 384.847 197.978 189.297 456.479 173.224C245.391 104.648 99.7565 196.44 53.325 250.909C-9.89383 322.699 53.3257 396.566 113.597 391.544Z" />
  <path
    d="M547.558 442.436C354.687 534.853 250.215 301.801 378.796 205.365C230.125 233.492 207.355 368.77 152.44 391.539C199.319 481.278 381.475 589.232 547.558 442.436Z" />
  <path
    d="M493.983 232.155C481.125 152.863 372.1 84.8225 315.846 70.0894C365.403 -35.7219 457.82 19.1936 473.893 27.2299C511.395 -10.2728 570.328 1.78263 579.704 7.14016C536.844 -4.6464 500.234 25.445 487.287 41.9641C488.179 42.857 490.769 45.4463 493.983 48.6601C551.577 23.2118 583.722 44.6419 593.098 52.6774C540.594 40.8908 513.181 57.5885 506.038 67.4106C535.504 119.646 503.359 213.403 493.983 232.155Z" />
  <path
    d="M42.6106 232.158C164.762 117.507 344.418 126.347 418.977 145.098C385.493 125.008 294.414 62.0566 152.439 62.0566C-45.7891 75.4506 -10.9661 232.158 42.6106 232.158Z" />
</svg>