<?xml version="1.0" encoding="UTF-8" standalone="no"?>
<!DOCTYPE svg PUBLIC "-//W3C//DTD SVG 1.1//EN" "http://www.w3.org/Graphics/SVG/1.1/DTD/svg11.dtd">
<svg width="100%" height="100%" viewBox="0 0 430 430" version="1.1" xmlns="http://www.w3.org/2000/svg" xmlns:xlink="http://www.w3.org/1999/xlink" xml:space="preserve" xmlns:serif="http://www.serif.com/" style="fill-rule:evenodd;clip-rule:evenodd;stroke-linejoin:round;stroke-miterlimit:2;">
    <g>
        <clipPath id="_clip1">
            <path d="M-500,-500L1000,-500L1000,1000L-500,1000L-500,-500ZM190.352,77.853C190.352,45.852 164.02,19.52 132.019,19.52C100.018,19.52 73.686,45.852 73.686,77.853C73.686,109.854 100.018,136.186 132.019,136.186C164.02,136.186 190.352,109.854 190.352,77.853Z"/>
        </clipPath>
        <g clip-path="url(#_clip1)">
            <path d="M411.25,77.853C411.25,83.602 406.582,88.27 400.833,88.27L29.167,88.27C23.418,88.27 18.75,83.602 18.75,77.853C18.75,72.104 23.418,67.436 29.167,67.436L400.833,67.436C406.582,67.436 411.25,72.104 411.25,77.853Z"/>
        </g>
        <clipPath id="_clip2">
            <path d="M-500,-500L1000,-500L1000,1000L-500,1000L-500,-500ZM190.352,77.853C190.352,45.852 164.02,19.52 132.019,19.52C100.018,19.52 73.686,45.852 73.686,77.853C73.686,109.854 100.018,136.186 132.019,136.186C164.02,136.186 190.352,109.854 190.352,77.853Z"/>
        </clipPath>
        <g clip-path="url(#_clip2)">
            <path d="M132.019,77.853C132.019,83.602 127.351,88.27 121.602,88.27L29.167,88.27C23.418,88.27 18.75,83.602 18.75,77.853C18.75,72.104 23.418,67.436 29.167,67.436L121.602,67.436C127.351,67.436 132.019,72.104 132.019,77.853Z"/>
        </g>
        <circle cx="132.019" cy="77.853" r="52.083"/>
        <clipPath id="_clip3">
            <path d="M-500,-500L1000,-500L1000,1000L-500,1000L-500,-500ZM290.352,215.353L290.352,215.353C290.352,183.352 264.02,157.02 232.019,157.02C200.018,157.02 173.686,183.352 173.686,215.353L173.686,215.353C173.686,247.354 200.018,273.686 232.019,273.686C264.02,273.686 290.352,247.354 290.352,215.353Z"/>
        </clipPath>
        <g clip-path="url(#_clip3)">
            <path d="M411.25,215.353C411.25,221.102 406.582,225.77 400.833,225.77L29.167,225.77C23.418,225.77 18.75,221.102 18.75,215.353C18.75,209.604 23.418,204.936 29.167,204.936L400.833,204.936C406.582,204.936 411.25,209.604 411.25,215.353Z"/>
        </g>
        <clipPath id="_clip4">
            <path d="M-500,-500L1000,-500L1000,1000L-500,1000L-500,-500ZM290.352,215.353L290.352,215.353C290.352,183.352 264.02,157.02 232.019,157.02C200.018,157.02 173.686,183.352 173.686,215.353L173.686,215.353C173.686,247.354 200.018,273.686 232.019,273.686C264.02,273.686 290.352,247.354 290.352,215.353Z"/>
        </clipPath>
        <g clip-path="url(#_clip4)">
            <path d="M232.019,215.353C232.019,221.102 227.351,225.77 221.602,225.77L29.167,225.77C23.418,225.77 18.75,221.102 18.75,215.353C18.75,209.604 23.418,204.936 29.167,204.936L221.602,204.936C227.351,204.936 232.019,209.604 232.019,215.353Z"/>
        </g>
        <circle cx="232.019" cy="215.353" r="52.083"/>
        <clipPath id="_clip5">
            <path d="M-500,-500L1000,-500L1000,1000L-500,1000L-500,-500ZM163.269,352.853C163.269,320.852 136.937,294.52 104.936,294.52C72.935,294.52 46.603,320.852 46.603,352.853C46.603,384.854 72.935,411.186 104.936,411.186C136.937,411.186 163.269,384.854 163.269,352.853Z"/>
        </clipPath>
        <g clip-path="url(#_clip5)">
            <path d="M411.25,352.853C411.25,358.602 406.582,363.27 400.833,363.27L29.167,363.27C23.418,363.27 18.75,358.602 18.75,352.853C18.75,347.104 23.418,342.436 29.167,342.436L400.833,342.436C406.582,342.436 411.25,347.104 411.25,352.853Z"/>
        </g>
        <clipPath id="_clip6">
            <path d="M-500,-500L1000,-500L1000,1000L-500,1000L-500,-500ZM163.269,352.853C163.269,320.852 136.937,294.52 104.936,294.52C72.935,294.52 46.603,320.852 46.603,352.853C46.603,384.854 72.935,411.186 104.936,411.186C136.937,411.186 163.269,384.854 163.269,352.853Z"/>
        </clipPath>
        <g clip-path="url(#_clip6)">
            <path d="M104.936,352.853C104.936,358.602 100.268,363.27 94.519,363.27L29.167,363.27C23.418,363.27 18.75,358.602 18.75,352.853C18.75,347.104 23.418,342.436 29.167,342.436L94.519,342.436C100.268,342.436 104.936,347.104 104.936,352.853Z"/>
        </g>
        <circle cx="104.936" cy="352.853" r="52.083"/>
    </g>
</svg>
