<svg width="1000" height="1000" viewBox="0 0 1000 1000" xmlns="http://www.w3.org/2000/svg">
<path fill-rule="evenodd" clip-rule="evenodd" d="M123.711 0C55.3875 0 0 55.3875 0 123.711V876.289C0 944.613 55.3875 1000 123.711 1000H876.289C944.613 1000 1000 944.613 1000 876.289V123.711C1000 55.3875 944.613 0 876.289 0H123.711ZM484.536 463.918C484.536 475.305 475.305 484.536 463.918 484.536H262.887C251.499 484.536 242.268 475.305 242.268 463.918L242.268 262.887C242.268 251.499 251.499 242.268 262.887 242.268L463.918 242.268C475.305 242.268 484.536 251.499 484.536 262.887V463.918ZM592.784 484.536C683.882 484.536 757.732 410.686 757.732 319.588V262.887C757.732 251.499 748.501 242.268 737.113 242.268L536.083 242.268C524.695 242.268 515.464 251.499 515.464 262.887V463.918C515.464 475.305 524.695 484.536 536.083 484.536H592.784ZM636.598 757.732C703.498 757.732 757.732 703.498 757.732 636.598C757.732 569.698 703.498 515.464 636.598 515.464C569.698 515.464 515.464 569.698 515.464 636.598C515.464 703.498 569.698 757.732 636.598 757.732ZM363.402 757.732C430.303 757.732 484.536 703.498 484.536 636.598C484.536 569.698 430.303 515.464 363.402 515.464C296.502 515.464 242.268 569.698 242.268 636.598L242.268 737.113C242.268 748.501 251.499 757.732 262.887 757.732H363.402Z"/>
</svg>
