<?xml version="1.0" standalone="no"?>
<!DOCTYPE svg PUBLIC "-//W3C//DTD SVG 20010904//EN"
 "http://www.w3.org/TR/2001/REC-SVG-20010904/DTD/svg10.dtd">
<svg version="1.0" xmlns="http://www.w3.org/2000/svg"
 width="800.000000pt" height="800.000000pt" viewBox="0 0 800.000000 800.000000"
 preserveAspectRatio="xMidYMid meet">

<g transform="translate(0.000000,800.000000) scale(0.100000,-0.100000)"
fill="#000000" stroke="none">
<path d="M4440 6455 l-975 -975 -815 0 -815 0 -645 645 c-355 355 -648 645
-652 645 -5 0 -8 -967 -8 -2150 l0 -2150 551 0 c360 0 557 -4 570 -10 26 -14
26 -66 0 -80 -13 -6 -209 -10 -567 -10 l-547 0 7 -62 c4 -34 10 -66 12 -70 3
-4 306 -8 673 -8 505 0 670 -3 679 -12 16 -16 15 -65 -1 -75 -6 -4 -309 -10
-673 -13 l-661 -5 15 -62 15 -63 514 0 c335 0 521 -4 534 -10 22 -12 26 -59 7
-78 -9 -9 -137 -12 -515 -12 -285 0 -503 -4 -503 -9 0 -5 18 -51 39 -102 164
-389 437 -709 796 -929 165 -102 414 -200 605 -239 248 -51 249 -51 1835 -51
1401 0 1489 1 1650 20 205 23 340 49 500 96 601 177 1131 564 1469 1074 98
149 111 170 170 289 193 384 286 777 286 1211 0 293 -42 562 -131 833 -53 163
-90 228 -184 323 -67 68 -95 89 -175 127 -120 58 -190 71 -328 64 -238 -12
-432 -136 -541 -347 -94 -180 -101 -361 -22 -577 40 -109 78 -260 98 -391 21
-136 23 -469 4 -602 -43 -306 -163 -626 -330 -881 -207 -318 -496 -577 -829
-743 -61 -31 -113 -56 -116 -56 -3 0 -7 210 -8 468 l-3 467 -550 2 c-541 3
-550 3 -567 23 -18 23 -14 48 10 68 12 9 140 12 564 12 l548 0 0 65 0 65 -673
0 c-524 0 -677 3 -689 12 -24 20 -28 44 -12 67 l15 21 680 0 679 0 0 70 0 70
-554 0 -555 0 -15 22 c-20 29 -20 34 4 58 20 20 33 20 570 20 l550 0 -1 1358
c-1 746 -5 1851 -8 2455 l-6 1097 -975 -975z m-260 -1669 c84 -20 214 -77 287
-127 343 -234 464 -689 283 -1064 -104 -215 -300 -379 -536 -447 l-79 -23
-1155 0 c-1257 0 -1177 -3 -1332 55 -73 27 -195 107 -265 173 -189 178 -290
465 -254 718 28 185 102 337 229 470 146 154 337 246 542 262 25 2 531 3 1125
2 996 -1 1086 -3 1155 -19z m-1320 -2251 c58 -58 109 -105 114 -105 6 0 58 47
116 105 115 113 140 125 180 85 41 -41 29 -65 -102 -197 l-123 -124 -5 -242
-5 -241 -27 -16 c-25 -13 -31 -13 -55 0 l-28 16 -5 242 -5 242 -122 123 c-132
131 -145 155 -103 197 37 37 59 26 170 -85z"/>
<path d="M3757 4594 c-79 -19 -200 -83 -265 -140 -220 -193 -285 -514 -157
-777 66 -135 169 -237 308 -303 369 -175 807 29 908 424 39 154 18 330 -58
475 -77 148 -251 283 -414 322 -80 18 -244 18 -322 -1z"/>
<path d="M1860 4584 c-121 -33 -244 -109 -329 -206 -138 -157 -191 -398 -133
-603 60 -208 230 -382 440 -448 90 -29 278 -30 367 -3 106 32 195 86 276 166
135 133 194 277 193 465 0 126 -10 168 -64 280 -85 175 -240 303 -425 350 -75
19 -251 19 -325 -1z m325 -136 c159 -52 281 -173 337 -336 31 -93 31 -230 -1
-322 -78 -226 -295 -373 -526 -357 -242 18 -430 183 -480 422 -79 383 296 715
670 593z"/>
</g>
</svg>
