<?xml version="1.0" encoding="utf-8"?>
<!-- Generator: Adobe Illustrator 26.3.1, SVG Export Plug-In . SVG Version: 6.00 Build 0)  -->
<svg version="1.1" id="Layer_1" xmlns="http://www.w3.org/2000/svg" xmlns:xlink="http://www.w3.org/1999/xlink" x="0px" y="0px"
	 width="500px" height="500px" viewBox="0 0 500 500" enable-background="new 0 0 500 500" xml:space="preserve">
<g>
	<path d="M361.48,76.85c2.8,0,5.56,0.03,8.29,0.16c-25.24-25.24-60.56-60.56-60.56-60.56
		C301.74,8.94,286.18,0,273.03,0c-11.31,0-22.41,2.26-29.6,6.58L103.6,76.85H361.48z"/>
	<path d="M361.48,94.2H104.82l317.69,317.69l77.48-0.71l0-203.95L396.05,103.29
		C386.33,95.59,377.06,94.2,361.48,94.2z"/>
	<path d="M94.2,364.21c0,24.93,2.89,28.85,13.92,39.93l-0.01,0.01L203.95,500l207.24,0l-0.71-75.61L94.2,108.11
		V364.21z"/>
	<path d="M76.85,364.21l0-261.42L6.58,250C3.76,255.98,0,266.38,0,273.03c0,14.36,6.32,29.06,16.45,39.47
		l60.57,60.58C76.91,370.34,76.85,367.41,76.85,364.21z"/>
</g>
</svg>
