<svg version="1.2" baseProfile="tiny-ps" xmlns="http://www.w3.org/2000/svg" viewBox="0 0 1412 1601" width="1412" height="1601">
	<title>dd_logo_v_white-svg</title>
	<style>
		tspan { white-space:pre }
		.shp0 { fill: none } 
	</style>
	<g id="Layer">
		<path id="Layer" class="shp0" d="M1035.3 865.32C1035.32 865.32 1035.32 865.29 1035.32 865.29L1035.3 865.29L1035.3 865.32Z" />
	</g>
	<g id="Layer">
		<path id="Layer" fill-rule="evenodd" class="shp1" d="M530.23 913.07L586.16 1348.46C561.34 1351.96 557.49 1353.74 530.36 1357.59C506.41 1273.08 460.66 1217.92 410.64 1185.77C366.57 1157.4 305.69 1151.03 247.43 1162.6L243.68 1166.89C284.17 1162.68 331.98 1168.54 381.13 1199.67C429.27 1230.12 468.17 1308.83 482.45 1356.22C500.77 1416.79 513.46 1481.56 464.16 1550.24C428.74 1599.52 324.7 1626.67 241.59 1566.08C181 1521.9 227.49 1494.22 106.42 1393.72C56.36 1352.11 74.04 1281.5 103.63 1236.9C142.63 1161.56 343.96 1065.83 332.56 945.37C328.5 901.6 321.5 844.59 280.82 805.51C279.33 821.75 282.04 837.33 282.04 837.33C282.04 837.33 265.37 816.12 257.07 787.04C248.75 775.85 242.31 772.33 233.53 757.46C227.28 774.69 228.12 794.63 228.12 794.63C228.12 794.63 214.42 762.33 212.24 735.13C204.12 747.31 202.11 770.45 202.11 770.45C202.11 770.45 184.32 719.58 188.38 692.17C180.26 668.32 156.26 621.03 163.03 513.55C207.41 544.58 304.96 537.2 342.99 481.2C355.6 462.66 364.23 412.01 336.65 312.2C318.99 248.21 275.14 152.91 257.99 116.75L255.98 118.2C264.94 147.38 283.54 208.4 290.64 238.03C312.24 327.83 318.02 359.06 307.9 400.44C299.27 436.5 278.64 459.97 226.24 486.33C173.87 512.72 104.34 448.47 99.98 444.92C49.1 404.35 9.67 338.25 5.3 306.13C0.74 270.97 25.58 249.86 38.09 221.14C20.2 226.24 0.23 235.32 0.23 235.32C0.23 235.32 24.05 210.68 53.46 189.34C65.67 181.28 72.75 176.18 85.59 165.52C67.01 165.21 51.94 165.72 51.94 165.72C51.94 165.72 82.87 148.98 115 136.8C91.5 135.76 69.02 136.62 69.02 136.62C69.02 136.62 138.17 105.69 192.77 83.06C230.3 67.66 266.94 72.2 287.57 101.99C314.6 140.98 343.04 162.2 403.23 175.31C440.26 158.92 451.45 150.55 497.91 137.86C538.81 92.93 570.91 87.12 570.91 87.12C570.91 87.12 554.98 101.68 550.74 124.67C573.93 106.4 599.33 91.15 599.33 91.15C599.33 91.15 589.49 103.31 580.35 122.59L582.43 125.74C609.51 109.5 641.3 96.73 641.3 96.73C641.3 96.73 632.19 108.25 621.53 123.12C641.96 122.94 683.32 123.98 699.38 125.84C794.16 127.87 813.83 24.6 850.19 11.66C895.74 -4.63 916.09 -14.45 993.76 61.77C1060.34 127.16 1112.41 244.3 1086.56 270.48C1064.91 292.31 1022.15 262.04 974.8 203.05C949.79 171.79 930.86 134.84 921.97 87.88C914.46 48.27 885.38 25.26 885.38 25.26C885.38 25.26 902.28 62.89 902.28 96.07C902.28 114.17 904.57 181.91 933.6 219.94C930.68 225.47 929.36 247.4 926.19 251.63C892.36 210.78 819.76 181.55 807.96 172.93C847.96 205.73 940.07 281.12 975.44 353.4C1008.91 421.73 989.17 484.4 1006.07 500.61C1010.89 505.21 1078.06 588.86 1090.95 630.87C1113.5 704.13 1092.34 781.08 1062.81 828.78L980.49 841.62C968.44 838.29 960.34 836.62 949.51 830.38C955.47 819.8 967.27 793.51 967.45 788.11L962.75 779.96C937.12 816.27 894.21 851.51 858.54 871.74C811.87 898.2 758.05 894.11 723.01 883.28C623.64 852.63 529.63 785.49 506.97 767.86C506.97 767.86 506.28 781.94 510.49 785.11C535.59 813.38 593.01 864.45 648.51 900.1L530.23 913.07ZM869.19 702.58C906.88 730.72 939.89 749.57 974.75 744.97C996.12 742.18 1015.02 708.29 1028.37 677.56C1037.53 656.42 1037.53 633.56 1024.13 626.16C1017.38 622.38 985.77 623.85 963.59 626.49C921.34 631.51 875.69 646.17 865.67 653.94C847.5 667.99 855.75 692.48 869.19 702.58ZM873.46 359.97C875.11 360.25 876.6 360.53 877.77 360.96C891.5 365.71 882.21 370.43 879.72 376.11C877.31 381.69 873.48 385.32 879.19 403.41C879.32 403.77 879.42 404.1 879.55 404.48C879.83 405.16 880.18 406.02 880.46 406.79C881.15 408.51 881.88 410.24 882.82 412.19C893.22 433.38 904.57 453.32 923.57 463.49C928.47 462.71 933.57 462.1 938.8 461.87C956.66 461.08 967.9 463.9 975.06 467.78C975.72 464.18 975.87 459 975.46 451.31C974.04 424.55 980.79 378.95 929.28 354.98C909.82 345.94 882.54 348.71 873.46 359.97ZM532.09 542.12C535.97 545.47 539.24 547.83 542.24 549.81C553.61 544.38 566.65 538.98 581.59 534.13C606.87 525.93 627.88 521.7 645.13 519.44C653.38 510.2 663.02 493.97 660.61 464.53C657.34 424.55 627.04 430.97 649.8 409.3C661.75 397.96 590.45 383.11 535.11 420.84C494.3 448.65 493.01 508.33 532.09 542.12ZM1411.89 1360.03L641.91 1498.81L575.33 943.26L685.05 928.19C702.76 936.16 715.12 939.2 736.43 944.6C769.55 953.23 807.94 961.48 864.7 932.91C877.92 926.34 905.48 901.17 916.59 886.78L1366.09 805.31L1411.89 1360.03ZM1364.54 1319.96L1324.78 892.87L1212.95 1127.39L1065.72 1030.31L942.91 1235.4L800.12 1193.66L674.34 1385.5L680.81 1445.86L1364.54 1319.96Z" />
	</g>
</svg>