<svg width="48" height="48" viewBox="0 0 48 48" xmlns="http://www.w3.org/2000/svg">
    <g id="Togglebot">
        <path d="M31.0267 15.1004H25.0932V13.9595C26.393 13.5068 27.3266 12.2754 27.3266 10.823C27.3266 8.98676 25.8364 7.5 24 7.5C22.1636 7.5 20.6734 8.98857 20.6734 10.823C20.6734 12.2754 21.607 13.5068 22.9068 13.9595V15.1004H16.9733C10.9219 15.1004 6 20.017 6 26.0619C6 32.1067 10.9219 37.0233 16.9733 37.0233H31.0267C37.0762 37.0233 42 32.1067 42 26.0619C42 20.017 37.0781 15.1004 31.0267 15.1004ZM24 9.68396C24.6291 9.68396 25.1403 10.1946 25.1403 10.823C25.1403 11.4514 24.6291 11.9621 24 11.9621C23.3709 11.9621 22.8597 11.4514 22.8597 10.823C22.8597 10.1946 23.3709 9.68396 24 9.68396ZM31.0267 34.8376H16.9733C12.1293 34.8376 8.18814 30.9006 8.18814 26.0619C8.18814 21.2231 12.1293 17.2862 16.9733 17.2862H31.0267C35.8707 17.2862 39.8119 21.2231 39.8119 26.0619C39.8119 30.9006 35.8707 34.8376 31.0267 34.8376Z"/>
        <path d="M16.2483 20.2992C13.2516 20.2992 10.8224 22.7258 10.8224 25.7193C10.8224 28.7127 13.2516 31.1393 16.2483 31.1393C19.245 31.1393 21.6742 28.7127 21.6742 25.7193C21.6742 22.7258 19.245 20.2992 16.2483 20.2992ZM16.2483 28.9536C14.4626 28.9536 13.0105 27.503 13.0105 25.7193C13.0105 23.9355 14.4626 22.485 16.2483 22.485C18.034 22.485 19.4861 23.9355 19.4861 25.7193C19.4861 27.503 18.034 28.9536 16.2483 28.9536Z"/>
        <path d="M31.7521 20.2994C28.7554 20.2994 26.3261 22.726 26.3261 25.7195C26.3261 28.7129 28.7554 31.1395 31.7521 31.1395C34.7487 31.1395 37.178 28.7129 37.178 25.7195C37.178 22.726 34.7487 20.2994 31.7521 20.2994ZM31.7521 28.9538C29.9664 28.9538 28.5143 27.5032 28.5143 25.7195C28.5143 23.9357 29.9664 22.4852 31.7521 22.4852C33.5377 22.4852 34.9898 23.9357 34.9898 25.7195C34.9898 27.5032 33.5377 28.9538 31.7521 28.9538Z"/>
        <path d="M25.632 31.1632C25.2513 31.5145 24.6965 31.6938 23.9822 31.6938C23.268 31.6938 22.7332 31.5218 22.3525 31.1831C21.9029 30.7811 21.2104 30.8209 20.8097 31.2718C20.4073 31.7228 20.4471 32.4127 20.8986 32.8129C21.4442 33.2983 22.4214 33.8778 23.9822 33.8778C25.5431 33.8778 26.5674 33.2747 27.1167 32.7677C27.5609 32.3584 27.588 31.6666 27.1765 31.2248C26.765 30.7829 26.0743 30.7557 25.632 31.165V31.1632Z"/>
    </g>
</svg>
