<?xml version="1.0" encoding="utf-8"?>
<!-- Generator: Adobe Illustrator 25.4.1, SVG Export Plug-In . SVG Version: 6.00 Build 0)  -->
<svg version="1.1" id="Logo" xmlns="http://www.w3.org/2000/svg" xmlns:xlink="http://www.w3.org/1999/xlink" x="0px" y="0px"
	 viewBox="0 0 100 109.6" style="enable-background:new 0 0 100 109.6;" xml:space="preserve">
<style type="text/css">
	.st0{fill:#101827;}
</style>
<g id="Togglebot">
	<path id="Thicker_Togglebot" class="st0" d="M50.1,109.6c-6.5,0-12.5-3.7-15.4-9.5c-0.4-0.7,0-1.6,0.7-2h0.1l3.3-1.3
		c0.7-0.3,1.5,0,1.8,0.7c2.8,5.3,9.4,7.3,14.6,4.4c1.9-1,3.4-2.6,4.4-4.4c0.3-0.7,1.1-1,1.8-0.7l3.3,1.3c0.8,0.3,1.1,1.2,0.8,1.9
		v0.1C62.6,105.9,56.6,109.6,50.1,109.6z M70.5,29.1H53.3v-9.6c5.2-1.8,8-7.5,6.3-12.7c-1.8-5.2-7.5-8-12.7-6.3s-8,7.5-6.3,12.7
		c1,2.9,3.3,5.3,6.3,6.3v9.6H29.7C13.3,29.2,0,42.4,0,58.8s13.3,29.6,29.6,29.6h40.8c16.4,0,29.6-13.3,29.6-29.7
		C100.1,42.4,86.8,29.2,70.5,29.1z M50.1,6.5c2,0,3.6,1.6,3.6,3.6s-1.6,3.6-3.6,3.6s-3.6-1.6-3.6-3.6l0,0
		C46.5,8.1,48.1,6.5,50.1,6.5z M70.5,82H45.9c-7.6,0-14.7-3.8-19-10c7.3,1.7,14.6-2.9,16.3-10.3c1.7-7.3-2.9-14.6-10.3-16.3
		c-7.3-1.7-14.6,2.9-16.3,10.3c-0.2,1-0.3,2-0.3,3c0,9,4.1,17.5,11.1,23.1C14.6,80.6,5.3,69.2,6.6,56.4c1.2-11.8,11.2-20.8,23-20.9
		h24.6c7.6,0,14.7,3.8,19,10c-1-0.2-2-0.3-3-0.3c-7.5,0-13.6,6.1-13.6,13.6s6.1,13.6,13.6,13.6s13.6-6.1,13.6-13.6l0,0
		c0-9-4.1-17.5-11.1-23.1C85.5,37,94.8,48.4,93.5,61.2C92.3,73,82.4,82,70.5,82L70.5,82z M22.7,58.8c0-4,3.2-7.2,7.2-7.2
		s7.2,3.2,7.2,7.2S33.9,66,29.9,66l0,0C25.9,66,22.7,62.8,22.7,58.8z M77.4,58.8c0,4-3.2,7.2-7.2,7.2S63,62.8,63,58.8
		s3.2-7.2,7.2-7.2S77.4,54.8,77.4,58.8z"/>
</g>
</svg>
