<?xml version="1.0" standalone="no"?>
<!DOCTYPE svg PUBLIC "-//W3C//DTD SVG 20010904//EN"
 "http://www.w3.org/TR/2001/REC-SVG-20010904/DTD/svg10.dtd">
<svg version="1.0" xmlns="http://www.w3.org/2000/svg"
 width="308.000000pt" height="513.000000pt" viewBox="0 0 308.000000 513.000000"
 preserveAspectRatio="xMidYMid meet">
<metadata>
Created by potrace 1.16, written by Peter Selinger 2001-2019
</metadata>
<g transform="translate(0.000000,513.000000) scale(0.100000,-0.100000)"
fill="#000000" stroke="none">
<path d="M1534 5097 c-63 -79 -123 -272 -249 -792 -197 -817 -263 -1060 -651
-2419 -228 -796 -414 -1452 -414 -1457 0 -25 334 -146 559 -203 277 -70 499
-98 771 -98 382 1 701 72 1011 228 110 54 317 187 325 208 4 11 -6 49 -104
386 -28 96 -94 339 -147 540 -53 201 -227 844 -386 1430 -160 586 -326 1196
-369 1357 -149 545 -226 780 -271 826 -15 15 -32 27 -38 27 -5 0 -22 -15 -37
-33z m-115 -1912 l62 -140 -66 -145 c-36 -80 -70 -149 -74 -153 -8 -8 -26 37
-96 238 l-28 80 67 134 c37 73 69 132 70 130 2 -2 31 -67 65 -144z m756 -930
c32 -71 58 -134 58 -140 0 -23 -142 -318 -147 -305 -3 8 -30 84 -60 169 l-54
154 66 133 c37 74 69 130 73 126 4 -4 33 -65 64 -137z m-1139 -802 c14 -32 42
-95 61 -140 l36 -82 -38 -83 c-21 -46 -54 -117 -72 -158 l-35 -75 -59 165 -59
165 62 132 c35 73 66 133 71 133 4 0 19 -26 33 -57z m1559 -633 c-67 -129
-313 -250 -620 -306 -152 -27 -460 -25 -620 5 -129 23 -305 68 -318 80 -4 4
23 3 60 -2 104 -16 621 -14 733 1 266 38 465 95 644 187 67 34 124 63 129 64
4 0 1 -12 -8 -29z"/>
</g>
</svg>
