<svg xmlns="http://www.w3.org/2000/svg" viewBox="0 0 301 301" fill="none">
    <path fill="currentColor" d="M297.086 142.212 158.892 4.019c-4.601-4.602-12.062-4.602-16.664 0L4.035 142.212c-7.423 7.423-2.165 20.115 8.332 20.115h33.328c3.126 0 6.123-1.241 8.332-3.451l88.201-88.201c4.602-4.602 12.063-4.602 16.664 0l88.201 88.201a11.783 11.783 0 0 0 8.332 3.451h33.329c10.497 0 15.755-12.692 8.332-20.115Z"></path>
    <path fill="currentColor" d="m213.765 142.212-54.873-54.873c-4.601-4.602-12.062-4.602-16.664 0l-54.873 54.873c-7.422 7.423-2.165 20.115 8.332 20.115h33.329c3.125 0 6.122-1.241 8.332-3.451l4.88-4.881c4.602-4.602 12.063-4.602 16.664 0l4.881 4.881a11.783 11.783 0 0 0 8.332 3.451h33.328c10.498 0 15.755-12.692 8.332-20.115Z"></path>
    <path fill="currentColor" d="M142.212 4.035 4.019 142.228c-4.602 4.602-4.602 12.063 0 16.664l138.193 138.194c7.423 7.423 20.115 2.165 20.115-8.332v-33.329c0-3.125-1.241-6.122-3.451-8.332l-88.201-88.201c-4.602-4.601-4.602-12.062 0-16.664l88.201-88.2a11.782 11.782 0 0 0 3.451-8.333V12.367c0-10.497-12.692-15.755-20.115-8.332Z"></path>
    <path fill="currentColor" d="m142.212 87.356-54.873 54.872c-4.602 4.602-4.602 12.063 0 16.664l54.873 54.873c7.423 7.423 20.115 2.166 20.115-8.332v-33.328c0-3.125-1.241-6.122-3.451-8.332l-4.881-4.881c-4.602-4.601-4.602-12.062 0-16.664l4.881-4.88a11.783 11.783 0 0 0 3.451-8.332V95.688c0-10.498-12.692-15.755-20.115-8.332Z"></path>
</svg>
