<svg id="svg" xmlns="http://www.w3.org/2000/svg" xmlns:xlink="http://www.w3.org/1999/xlink" width="400" height="400" viewBox="0, 0, 400,400"><g id="svgg"><path id="path0" d="M43.958 0.340 C 21.028 3.450,3.311 21.269,0.320 44.229 C -0.168 47.978,-0.168 352.022,0.320 355.771 C 3.326 378.850,21.150 396.674,44.229 399.680 C 47.978 400.168,352.022 400.168,355.771 399.680 C 378.850 396.674,396.674 378.850,399.680 355.771 C 400.168 352.022,400.168 47.978,399.680 44.229 C 396.674 21.150,378.850 3.326,355.771 0.320 C 352.183 -0.147,47.406 -0.128,43.958 0.340 M151.875 49.346 C 186.367 54.961,207.223 87.896,196.613 119.995 C 190.690 137.914,175.010 151.834,155.885 156.151 L 154.375 156.492 154.375 171.996 L 154.375 187.500 212.500 187.500 L 270.625 187.500 270.625 215.690 L 270.625 243.879 273.361 244.656 C 306.590 254.091,323.211 290.221,308.212 320.411 C 293.329 350.367,254.363 360.556,225.938 341.925 C 198.953 324.239,193.127 287.983,213.280 263.162 C 220.906 253.770,234.021 245.741,244.844 243.841 L 245.625 243.704 245.625 224.039 L 245.625 204.375 187.500 204.375 L 129.375 204.375 129.375 180.152 L 129.375 155.929 127.552 155.436 C 89.450 145.123,74.321 99.690,98.905 69.412 C 108.374 57.750,121.690 50.777,138.125 48.875 C 140.264 48.628,149.380 48.940,151.875 49.346 " fill-rule="evenodd"></path></g></svg>