<svg xmlns="http://www.w3.org/2000/svg" width="148" height="148" viewBox="0 0 148 148">
  <path d="M0 74C0 33.13 33.13 0 74 0c40.869 0 74 33.13 74 74 0 40.869-33.131 74-74 74-40.87 0-74-33.131-74-74Zm99.695 14.662 1.774 2.521 1.309-.92V53.916l-4.436 2.169-.012.005-.056.027-.246.116c-.221.102-.552.25-.973.432-.845.362-2.043.847-3.447 1.332-2.87.99-6.34 1.886-9.33 1.886-1.038 0-2.083-.333-3.33-1.042-1.121-.637-2.211-1.456-3.532-2.448-.224-.169-.455-.343-.694-.521-3.117-2.33-7.226-5.239-13-5.239-5.24 0-9.551 1.441-12.542 2.872a27.698 27.698 0 0 0-3.502 1.99 20.358 20.358 0 0 0-1.235.9l-.083.068-.027.023-.011.009-.004.004s.015-.013-.004.003l-1.092.923v39.94l5.064-4.285.023-.02.145-.112c.14-.107.365-.272.669-.477.61-.41 1.53-.974 2.717-1.542 2.382-1.14 5.78-2.268 9.882-2.268 3.722 0 5.93 1.35 8.754 3.124l.093.059c2.881 1.811 6.38 4.011 11.942 4.011 5.127 0 9.306-1.127 12.219-2.267a28.173 28.173 0 0 0 3.404-1.59 19.658 19.658 0 0 0 1.206-.727l.082-.056.028-.02.011-.007.008-.006-1.774-2.52Z"/>
</svg>