<svg xmlns="http://www.w3.org/2000/svg" width="200" height="200" viewBox="0 0 200 200" version="1.1"><path d="M 107.750 23.662 C 108.438 23.940, 109.563 23.940, 110.250 23.662 C 110.938 23.385, 110.375 23.158, 109 23.158 C 107.625 23.158, 107.063 23.385, 107.750 23.662 M 43.813 26.683 C 44.534 26.972, 45.397 26.936, 45.729 26.604 C 46.061 26.272, 45.471 26.036, 44.417 26.079 C 43.252 26.127, 43.015 26.364, 43.813 26.683 M 37.500 35 C 38.495 36.100, 39.535 37, 39.810 37 C 40.085 37, 39.495 36.100, 38.500 35 C 37.505 33.900, 36.465 33, 36.190 33 C 35.915 33, 36.505 33.900, 37.500 35 M 44 41.500 C 45.292 42.875, 46.574 44, 46.849 44 C 47.124 44, 46.292 42.875, 45 41.500 C 43.708 40.125, 42.426 39, 42.151 39 C 41.876 39, 42.708 40.125, 44 41.500 M 128.079 42.583 C 128.127 43.748, 128.364 43.985, 128.683 43.188 C 128.972 42.466, 128.936 41.603, 128.604 41.271 C 128.272 40.939, 128.036 41.529, 128.079 42.583 M 112.447 48.059 C 110.398 50.322, 111.323 53.226, 114.279 53.808 C 115.447 54.038, 115.697 53.555, 115.264 51.900 C 114.771 50.017, 115.008 49.769, 116.842 50.248 C 119.605 50.971, 119.778 48.487, 117.066 47.035 C 114.540 45.684, 114.610 45.668, 112.447 48.059 M 132.728 50.722 C 134.503 50.943, 137.653 50.946, 139.728 50.730 C 141.802 50.513, 140.350 50.333, 136.500 50.328 C 132.650 50.324, 130.952 50.501, 132.728 50.722 M 149.158 60 C 149.158 61.375, 149.385 61.938, 149.662 61.250 C 149.940 60.563, 149.940 59.438, 149.662 58.750 C 149.385 58.063, 149.158 58.625, 149.158 60 M 32.079 85.583 C 32.127 86.748, 32.364 86.985, 32.683 86.188 C 32.972 85.466, 32.936 84.603, 32.604 84.271 C 32.272 83.939, 32.036 84.529, 32.079 85.583 M 31.286 96.500 C 31.294 99.250, 31.488 100.256, 31.718 98.736 C 31.947 97.216, 31.941 94.966, 31.704 93.736 C 31.467 92.506, 31.279 93.750, 31.286 96.500 M 65.580 93.870 C 64.244 96.033, 62 106.869, 62 111.161 C 62 125.579, 70.368 142.471, 81.216 149.950 C 86.985 153.928, 97.945 158.482, 98.991 157.336 C 99.411 156.876, 100.552 154.042, 101.528 151.038 C 102.801 147.116, 104.687 144.227, 108.217 140.788 C 112.855 136.271, 116 134.744, 116 137.011 C 116 138.366, 113.027 157.102, 112.511 159 C 112.287 159.825, 113.571 162.165, 115.364 164.200 C 118.625 167.900, 118.625 167.900, 126.563 165.147 C 144.471 158.935, 158.052 145.863, 164.433 128.697 C 165.700 125.288, 166.988 120.700, 167.296 118.500 C 167.604 116.300, 167.631 115.287, 167.355 116.250 C 166.539 119.097, 164.419 118.282, 160.218 113.510 C 155.667 108.340, 153.448 101.755, 154.453 96.401 C 155.143 92.721, 155.143 92.721, 151.821 93.378 C 147.945 94.144, 139.907 99.438, 135.119 104.377 C 131.768 107.835, 131.768 107.835, 128.286 104.352 C 123.933 100, 117.092 95, 115.489 95 C 114.734 95, 114.070 97.290, 113.727 101.079 C 113.423 104.422, 112.969 107.365, 112.716 107.617 C 112.464 107.870, 109.612 106.282, 106.379 104.090 C 98.895 99.014, 96.384 98.504, 96.808 102.144 C 97.589 108.856, 91.133 115.988, 84.270 115.996 C 81.508 115.999, 80.746 115.422, 79 112 C 77.878 109.800, 76.307 108, 75.510 108 C 74.681 108, 72.577 104.790, 70.595 100.500 C 67.118 92.975, 66.576 92.258, 65.580 93.870 M 167.079 98.583 C 167.127 99.748, 167.364 99.985, 167.683 99.188 C 167.972 98.466, 167.936 97.603, 167.604 97.271 C 167.272 96.939, 167.036 97.529, 167.079 98.583 M 168.158 107 C 168.158 108.375, 168.385 108.938, 168.662 108.250 C 168.940 107.563, 168.940 106.438, 168.662 105.750 C 168.385 105.063, 168.158 105.625, 168.158 107 M 32.079 107.583 C 32.127 108.748, 32.364 108.985, 32.683 108.188 C 32.972 107.466, 32.936 106.603, 32.604 106.271 C 32.272 105.939, 32.036 106.529, 32.079 107.583 M 48 143.378 C 48 143.585, 48.788 144.373, 49.750 145.128 C 51.336 146.371, 51.371 146.336, 50.128 144.750 C 48.821 143.084, 48 142.555, 48 143.378 M 56.500 152 C 57.495 153.100, 58.535 154, 58.810 154 C 59.085 154, 58.495 153.100, 57.500 152 C 56.505 150.900, 55.465 150, 55.190 150 C 54.915 150, 55.505 150.900, 56.500 152 M 95.269 169.693 C 96.242 169.947, 97.592 169.930, 98.269 169.656 C 98.946 169.382, 98.150 169.175, 96.500 169.195 C 94.850 169.215, 94.296 169.439, 95.269 169.693 M 116.813 179.683 C 117.534 179.972, 118.397 179.936, 118.729 179.604 C 119.061 179.272, 118.471 179.036, 117.417 179.079 C 116.252 179.127, 116.015 179.364, 116.813 179.683 M 122.750 180.662 C 123.438 180.940, 124.563 180.940, 125.250 180.662 C 125.938 180.385, 125.375 180.158, 124 180.158 C 122.625 180.158, 122.063 180.385, 122.750 180.662" stroke="none" fill="#0d9fcd" fill-rule="evenodd"/><path d="M 91.350 24.562 C 87.418 25.230, 80.633 27.318, 76.273 29.203 C 68.346 32.630, 68.346 32.630, 62.423 29.608 C 57.486 27.088, 55.335 26.587, 49.500 26.600 C 42.266 26.615, 36 28.802, 36 31.310 C 36 32.002, 38.451 34.989, 41.446 37.947 C 44.441 40.905, 47.415 44.588, 48.054 46.131 C 49.103 48.664, 48.877 49.403, 45.731 53.719 C 41.021 60.181, 37.658 67.074, 34.847 76.025 C 31.461 86.809, 31.461 106.191, 34.847 116.975 C 37.945 126.840, 41.139 133.070, 47.274 141.209 C 58.404 155.977, 75.979 166.306, 94.422 168.918 C 99.209 169.595, 101.644 170.520, 103.706 172.441 C 105.242 173.874, 108.325 175.933, 110.555 177.018 C 115.027 179.192, 127 180.878, 127 179.333 C 127 178.809, 125.088 176.079, 122.750 173.266 C 111.184 159.349, 112.093 161.795, 114.101 150 C 115.085 144.225, 115.914 138.713, 115.945 137.750 C 116.040 134.747, 113.324 135.814, 108.217 140.788 C 104.687 144.227, 102.801 147.116, 101.528 151.038 C 100.552 154.042, 99.411 156.876, 98.991 157.336 C 97.945 158.482, 86.985 153.928, 81.216 149.950 C 70.368 142.471, 62 125.579, 62 111.161 C 62 106.056, 64.514 95.090, 66.033 93.569 C 66.606 92.994, 68.323 95.581, 70.512 100.319 C 72.549 104.728, 74.678 108, 75.510 108 C 76.307 108, 77.878 109.800, 79 112 C 80.746 115.422, 81.508 115.999, 84.270 115.996 C 91.133 115.988, 97.589 108.856, 96.808 102.144 C 96.384 98.504, 98.895 99.014, 106.379 104.090 C 109.612 106.282, 112.464 107.870, 112.716 107.617 C 112.969 107.365, 113.423 104.422, 113.727 101.079 C 114.070 97.290, 114.734 95, 115.489 95 C 117.092 95, 123.933 100, 128.286 104.352 C 131.768 107.835, 131.768 107.835, 135.119 104.377 C 139.907 99.438, 147.945 94.144, 151.821 93.378 C 155.143 92.721, 155.143 92.721, 154.453 96.401 C 154.054 98.528, 154.290 101.965, 155.014 104.550 C 156.325 109.233, 163.186 118, 165.540 118 C 168.862 118, 168.606 100.586, 165.117 89.272 C 162.754 81.609, 157.273 71.765, 152.547 66.694 C 149.889 63.842, 149 62.014, 149 59.399 C 149 57.027, 148.214 55.123, 146.545 53.455 C 144.408 51.317, 143.189 51, 137.104 51 C 133.090 51, 129.828 50.531, 129.436 49.897 C 129.061 49.290, 128.600 46.830, 128.411 44.429 C 127.926 38.282, 123.895 30.892, 119.281 27.695 C 115.482 25.062, 107.509 23.073, 101.500 23.257 C 99.850 23.308, 95.283 23.895, 91.350 24.562 M 112.447 48.059 C 110.398 50.322, 111.323 53.226, 114.279 53.808 C 115.447 54.038, 115.697 53.555, 115.264 51.900 C 114.771 50.017, 115.008 49.769, 116.842 50.248 C 119.605 50.971, 119.778 48.487, 117.066 47.035 C 114.540 45.684, 114.610 45.668, 112.447 48.059" stroke="none" fill="#9cc8dc" fill-rule="evenodd"/></svg>