<svg width="512" height="512" viewBox="40 40 420 420" xmlns="http://www.w3.org/2000/svg">
  <g clip-path="url(#clip0_46_2)">
    <path
      d="M130.975 114.93L121.86 82L81 86.9242L92.6294 129.703L148.262 332.517L174.978 430.077L215.838 424.845L189.122 327.593L174.978 276.504L169.006 254.346L164.292 236.803L155.805 205.72L149.519 183.561L144.805 166.019L185.665 161.094L267.071 150.938L273.671 150.015C279.329 149.399 284.672 148.784 289.386 156.17L290.958 158.632L292.53 160.787C294.73 164.48 296.93 165.403 301.644 164.788L359.163 157.709L365.135 179.868L369.849 197.41L319.874 203.565C312.645 204.489 307.931 202.334 303.845 196.487L301.33 192.486C300.387 191.255 299.759 190.332 298.501 189.716C296.93 188.485 294.73 188.485 291.901 188.793L196.665 200.488L205.152 231.879L286.558 221.723L292.844 220.8C298.816 220.184 303.845 219.261 308.874 226.955L310.445 229.417L311.702 231.571C314.217 235.265 316.417 236.188 321.132 235.572L378.336 228.494L384.308 250.653L389.336 268.195L339.361 274.35C331.818 275.273 327.418 273.119 323.332 267.272L320.817 263.271C319.874 261.732 318.931 261.116 317.988 260.193C316.103 259.27 313.902 259.27 311.388 259.578L215.838 271.273L227.782 314.974L274.928 309.127L294.101 306.665L321.446 303.28H323.332C328.675 302.664 330.561 306.049 330.875 307.588L332.132 312.205C333.39 316.206 335.59 319.899 344.39 318.668L397.508 312.205C427.996 306.973 435.54 282.66 428.625 258.039L388.079 109.083L334.961 115.854L320.189 117.7L289.386 121.393C283.415 122.009 279.329 119.547 278.386 115.546L274.928 103.543C273.985 99.8501 270.842 97.6958 265.499 98.3113L263.927 98.6191L171.835 110.006L130.975 114.93Z" />
    <path
      d="M164.292 236.803L155.805 205.72L149.519 183.561L144.805 166.019H145.119L185.665 161.094L171.521 110.006L130.975 114.93L121.86 82L81 86.9242L92.6294 129.703L148.262 332.517L174.978 430.077L215.838 424.845L189.122 327.593L174.978 276.504L169.006 254.346L164.292 236.803Z" />
    <path d="M205.152 231.571L252.927 225.724L244.44 194.64L196.665 200.488L199.494 211.567L205.152 231.571Z" />
    <path d="M185.665 161.094L233.439 155.247L219.296 104.159L171.835 110.006H171.521L185.665 161.094Z" />
    <path
      d="M219.296 104.159L233.44 155.247L267.071 150.938L273.671 150.015C279.329 149.4 284.672 148.784 289.386 156.17L289.701 156.478L278.386 115.854C278.386 115.854 278.386 115.854 278.386 115.546L274.928 103.543C273.985 99.8502 270.842 97.6959 265.499 98.3114L263.927 98.6191L219.296 104.159Z" />
    <path
      d="M278.386 115.853L289.701 156.478L290.958 158.632L292.529 160.786C294.73 164.48 296.93 165.403 301.644 164.787L358.849 157.709L346.905 114.315L334.961 115.853L320.189 117.7L289.386 121.393C283.415 122.009 279.643 119.854 278.386 115.853Z" />
    <path
      d="M346.905 114.315L358.849 157.709H359.163L365.135 179.868L369.849 197.41L401.28 311.281C428.625 304.819 435.225 281.429 428.625 258.039L388.079 109.083L346.905 114.315Z" />
    <path
      d="M309.502 227.878L298.816 189.716C298.816 189.716 298.816 189.716 298.501 189.716C296.93 188.485 294.73 188.485 291.901 188.793L244.44 194.64L252.927 225.724L286.558 221.723L292.844 220.8C298.816 220.184 303.845 219.261 308.874 226.955L309.502 227.878Z" />
    <path
      d="M359.163 157.709L400.023 152.785L388.079 109.083L346.905 114.315L358.849 157.709H359.163ZM429.882 262.963L389.336 268.195L401.28 311.281C426.739 305.434 433.968 284.814 429.882 262.963ZM378.336 228.494L419.196 223.57L410.709 192.486L369.849 197.41L378.336 228.494Z" />
    <path
      d="M359.163 157.709L400.023 152.785L388.079 109.083L346.905 114.315L358.849 157.709H359.163ZM429.882 262.963L389.336 268.195L401.28 311.281C426.739 305.434 433.968 284.814 429.882 262.963ZM378.336 228.494L419.196 223.57L410.709 192.486L369.849 197.41L378.336 228.494Z" />
    <path
      d="M359.163 157.709L400.023 152.785L388.079 109.083L346.905 114.315L358.849 157.709H359.163ZM429.882 262.963L389.336 268.195L401.28 311.281C426.739 305.434 433.968 284.814 429.882 262.963ZM378.336 228.494L419.196 223.57L410.709 192.486L369.849 197.41L378.336 228.494Z" />
    <path
      d="M311.388 259.578L263.927 265.425L275.871 308.819L294.101 306.665L321.446 303.28H323.332C328.675 302.664 330.561 306.049 330.875 307.588L332.132 312.205C332.447 313.436 333.075 314.667 333.704 315.898L318.617 260.809C318.303 260.501 318.303 260.501 317.989 260.193C316.103 259.27 313.903 259.27 311.388 259.578Z" />
    <path d="M275.871 308.819L263.927 265.425L215.838 271.272L227.782 314.974L274.928 309.127L275.871 308.819Z" />
  </g>
</svg>