<?xml version="1.0" standalone="no"?>
<!DOCTYPE svg PUBLIC "-//W3C//DTD SVG 20010904//EN"
 "http://www.w3.org/TR/2001/REC-SVG-20010904/DTD/svg10.dtd">
<svg version="1.0" xmlns="http://www.w3.org/2000/svg"
 width="300.000000pt" height="285.000000pt" viewBox="0 0 300.000000 285.000000"
 preserveAspectRatio="xMidYMid meet">
<g transform="translate(0.000000,285.000000) scale(0.100000,-0.100000)">
<path d="M1884 2810 c-26 -10 -81 -73 -102 -116 -10 -23 -21 -33 -31 -29 -326
97 -791 39 -1047 -132 -56 -37 -62 -39 -72 -22 -18 28 -96 78 -144 90 -41 11
-49 10 -88 -12 -117 -65 -94 -186 50 -259 l40 -21 -16 -31 c-9 -18 -26 -59
-38 -93 -17 -47 -34 -72 -80 -115 -32 -30 -70 -74 -84 -99 -31 -52 -62 -161
-62 -214 0 -88 53 -229 104 -276 14 -14 26 -30 26 -37 0 -7 -28 -36 -62 -66
-118 -102 -168 -186 -147 -247 20 -56 84 -60 181 -10 20 10 39 19 41 19 2 0 5
-28 6 -62 4 -143 48 -317 110 -442 l38 -75 -53 -26 c-117 -57 -214 -151 -214
-206 0 -85 114 -81 378 12 108 38 116 40 145 26 182 -84 443 -135 640 -124
105 6 233 26 267 41 11 5 24 -10 50 -56 42 -78 129 -171 184 -198 52 -25 61
-25 86 0 29 29 26 120 -8 257 l-29 112 53 36 c81 53 179 150 230 226 106 160
134 269 134 519 l0 169 83 83 c46 46 91 95 101 110 15 22 22 25 41 18 59 -23
372 -87 380 -78 3 3 1 59 -5 124 -6 68 -8 235 -5 389 6 306 2 351 -28 359 -11
3 -66 2 -121 -2 l-101 -7 115 -5 115 -5 1 -418 c2 -379 0 -416 -14 -405 -13
11 -14 11 -7 -1 6 -11 2 -13 -21 -7 -57 12 -161 35 -239 51 -44 10 -82 19 -84
21 -2 2 5 18 16 37 32 53 48 129 36 164 -10 28 -5 72 15 133 15 49 -6 145 -37
165 -33 20 -99 -35 -106 -88 -8 -66 -31 -153 -42 -160 -7 -4 -36 -30 -64 -57
-29 -28 -53 -50 -54 -50 -10 0 -11 87 -2 141 21 131 -22 267 -116 367 -30 31
-73 86 -97 122 -24 36 -74 97 -112 136 l-68 71 21 19 c27 24 69 106 69 134 0
72 -88 128 -156 100z m70 -52 c14 -6 28 -19 32 -30 6 -19 -22 -85 -54 -126
-15 -20 -20 -21 -36 -9 -18 13 -17 15 13 49 40 46 41 71 1 33 l-30 -29 0 27
c0 15 -5 27 -11 27 -8 0 -9 -13 -5 -40 7 -42 0 -48 -35 -29 -19 10 -19 11 3
51 23 40 71 88 88 88 5 0 20 -5 34 -12z m-346 -113 c34 -8 76 -17 93 -20 50
-9 150 -59 206 -103 52 -41 178 -181 170 -188 -2 -2 -22 2 -44 10 -25 9 -71
13 -124 11 -214 -6 -371 -146 -410 -365 -22 -124 25 -261 122 -359 30 -29 75
-64 101 -77 62 -32 182 -57 233 -49 22 4 52 9 68 11 76 12 213 105 246 168 22
40 31 31 31 -26 0 -29 5 -95 10 -147 15 -143 16 -465 1 -541 -31 -154 -93
-271 -207 -385 -162 -161 -331 -242 -584 -280 -234 -35 -473 -1 -720 102 -137
58 -206 113 -269 218 -34 56 -89 205 -96 260 -3 17 -10 55 -16 85 -9 43 -29
430 -23 430 1 0 31 -15 65 -32 61 -32 69 -33 179 -33 110 0 119 2 180 32 84
41 130 80 173 145 53 82 74 154 72 251 -4 181 -113 331 -286 395 -45 16 -75
20 -150 18 -52 -1 -104 -8 -116 -14 -12 -7 -25 -12 -28 -12 -22 0 64 172 116
233 23 26 68 66 101 89 61 41 212 116 248 123 11 2 25 7 31 11 6 3 61 17 122
29 137 28 402 33 505 10z m-1088 -111 c14 -8 39 -25 55 -39 25 -20 28 -28 19
-42 -17 -27 -35 -22 -55 15 -25 47 -33 52 -26 17 6 -30 5 -31 -29 -27 -21 3
-34 0 -34 -7 0 -6 11 -11 25 -11 29 0 75 -20 75 -32 0 -5 -7 -20 -16 -33 l-16
-24 -36 18 c-46 24 -112 89 -112 110 1 19 28 53 55 69 22 12 56 7 95 -14z
m1554 -260 c174 -82 262 -269 210 -444 -43 -144 -151 -241 -301 -270 -84 -17
-171 0 -254 49 -118 69 -183 184 -183 326 -1 72 3 88 33 150 57 114 156 195
266 216 66 12 172 0 229 -27z m-1269 -182 c74 -37 148 -114 182 -190 22 -47
26 -72 26 -147 1 -77 -3 -99 -25 -147 -35 -76 -109 -153 -183 -191 -56 -30
-66 -32 -165 -31 -125 0 -168 17 -252 93 -100 91 -142 212 -119 337 16 87 41
136 105 200 56 55 120 93 170 101 17 3 33 7 36 10 3 3 41 3 85 0 63 -3 93 -11
140 -35z m1795 -145 c0 -52 -29 -150 -50 -172 -20 -19 -20 -19 -20 36 0 31 5
81 11 112 10 50 15 57 35 57 20 0 24 -5 24 -33z m-116 -202 c8 -29 45 -42 76
-25 31 17 33 9 11 -44 -28 -64 -56 -103 -133 -184 l-66 -70 -6 67 c-4 36 -9
86 -12 111 -5 44 -3 47 53 106 32 34 61 62 64 63 4 1 10 -10 13 -24z m-2138
-541 c-6 -15 -101 -61 -136 -66 -21 -2 -26 2 -28 25 -4 35 25 78 102 149 l61
57 3 -76 c2 -42 1 -82 -2 -89z m248 -732 c28 -27 53 -52 56 -56 11 -17 -254
-96 -322 -96 -54 0 -49 19 20 81 46 41 169 118 191 119 2 0 27 -22 55 -48z
m1340 -212 c27 -114 33 -185 17 -195 -26 -16 -209 185 -211 231 0 7 15 15 33
18 17 4 52 17 77 31 25 13 48 24 52 24 3 1 18 -49 32 -109z"/>
<path d="M1243 1820 c-13 -5 -23 -14 -23 -19 0 -6 -16 -18 -35 -27 -68 -32
-102 -113 -71 -172 21 -42 50 -56 97 -48 37 6 39 5 39 -22 0 -50 25 -72 80
-72 27 0 60 4 74 10 23 8 26 15 26 60 0 46 2 50 23 50 35 0 70 42 64 77 -7 46
-34 89 -69 115 -18 12 -41 31 -50 40 -20 20 -114 24 -155 8z m127 -49 c0 -11
-89 -11 -96 1 -3 4 18 8 45 8 28 0 51 -4 51 -9z m90 -113 l0 -29 -75 5 c-58 3
-89 0 -139 -17 -54 -17 -67 -18 -80 -8 -24 20 -19 57 13 93 28 31 31 32 63 20
45 -16 107 -15 138 2 23 12 28 10 53 -12 17 -17 27 -36 27 -54z m-79 -106 c7
-34 3 -42 -18 -42 -9 0 -13 13 -13 41 0 49 21 49 31 1z m-45 -7 c0 -27 -4 -35
-18 -35 -14 0 -18 8 -18 35 0 27 4 35 18 35 14 0 18 -8 18 -35z"/>
<path d="M2051 2147 c-47 -23 -47 -98 1 -131 32 -23 65 -20 93 9 34 33 33 78
-1 110 -30 28 -57 31 -93 12z m39 -21 c0 -8 -4 -17 -8 -20 -13 -8 -35 11 -28
23 10 16 36 14 36 -3z m27 -61 c-7 -16 -37 -21 -37 -5 0 10 32 31 39 25 2 -2
1 -11 -2 -20z"/>
<path d="M753 1980 c-29 -27 -37 -56 -23 -89 22 -54 96 -65 133 -20 58 71 -43
172 -110 109z m45 -33 c2 -11 -3 -17 -17 -17 -23 0 -35 15 -26 31 10 15 39 6
43 -14z"/>
<path d="M2535 2333 c-27 -2 -53 -7 -57 -11 -11 -11 -19 -342 -8 -342 11 0 15
79 11 201 -2 42 0 90 3 106 6 27 11 30 54 32 26 1 76 6 112 10 l65 8 -65 0
c-36 0 -87 -2 -115 -4z"/>
<path d="M2674 2227 c3 -10 6 -23 6 -28 0 -14 27 -11 32 4 7 16 -1 37 -14 37
-5 0 -7 -10 -3 -22 5 -22 5 -21 -10 2 -10 15 -14 17 -11 7z"/>
<path d="M2663 2059 c-1 -11 7 -37 18 -57 10 -20 19 -48 19 -62 0 -14 5 -32
10 -40 7 -11 10 5 10 51 0 58 -3 70 -28 98 -26 30 -28 30 -29 10z"/>
<path d="M2739 2051 c10 -7 11 -27 6 -94 l-7 -85 -47 4 c-33 4 -42 2 -31 -5
22 -16 101 -14 95 2 -3 6 -1 49 3 94 6 66 5 83 -6 88 -21 8 -29 6 -13 -4z"/>
<path d="M2672 1628 c4 -28 19 -32 43 -13 17 13 18 16 5 25 -27 18 -52 12 -48
-12z"/>
</g>
</svg>
