<?xml version="1.0" encoding="utf-8"?>
<svg viewBox="0 0 111.509 110.796" xmlns="http://www.w3.org/2000/svg">
  <path d="M94.8639608,57.4953148 C94.1822327,59.5881151 93.0775925,61.5204033 91.6176243,63.1731396 L83.2830312,71.4613966 L67.1660371,55.4345145 L83.2830312,39.4078884 L91.6176243,47.5356335 C93.0778485,48.6988977 94.1635447,50.2620339 94.7403127,52.0320181 C95.3173368,53.8020023 95.3603448,55.7012666 94.8639608,57.4953148 L94.8639608,57.4953148 Z M53.4206273,94.3339756 C51.3662271,93.6297195 49.4779708,92.5156074 47.8718266,91.0597352 L39.5602735,82.7945181 L55.6770116,66.767892 L71.7940057,82.7945181 L63.4361167,91.1055592 C62.2664525,92.5575914 60.6943563,93.6371435 58.9146441,94.2108396 C57.1346758,94.7845357 55.2246596,94.8272877 53.4206273,94.3339756 L53.4206273,94.3339756 Z M16.3520785,53.1220662 C17.0445586,51.024146 18.1653267,49.0910897 19.6444949,47.4442415 L27.979088,39.1787684 L44.0960821,55.2056505 L27.979088,71.2325326 L19.6214549,62.9214915 C18.1599507,61.7533634 17.0722066,60.1871552 16.4915985,58.4143549 C15.9109904,56.6415547 15.8626064,54.7389625 16.3520785,52.9390262 L16.3520785,53.1220662 Z M57.7954119,16.1003654 C59.9150922,16.7815815 61.8681164,17.8969736 63.5282767,19.3743498 L71.8400857,27.6395669 L55.7230916,43.666449 L39.6063535,27.6395669 L47.8718266,19.5576459 C49.0417468,18.1053577 50.613843,17.0260615 52.3935552,16.4521094 C54.1735234,15.8784134 56.0832837,15.8359174 57.8873159,16.3292294 L57.7954119,16.1003654 Z M103.12969,36.202512 L74.9021022,8.22426837 C71.5963737,5.15124397 67.6726612,2.81012366 63.3900366,1.35578747 C53.7890114,-1.82680495 44.2571061,0.645899376 36.5210411,8.22426837 L8.27066943,36.202512 C5.18126103,39.4905765 2.82734072,43.392273 1.36327653,47.6500655 C-1.83697989,57.1975868 0.649548434,66.699028 8.27066943,74.392085 L36.3600171,102.438937 C39.6511535,105.563673 43.5761461,107.952409 47.8718266,109.44489 C50.490963,110.324762 53.2350273,110.780698 55.9993157,110.795546 C59.5275081,110.724634 63.0050126,109.94793 66.224725,108.512281 C69.4444374,107.076633 72.3408218,105.010969 74.7410781,102.438937 L103.12969,74.483477 C106.261338,71.2069326 108.655451,67.3044681 110.152027,63.0359235 C113.352283,53.4884023 110.842715,43.986961 103.12969,36.316944" style=""/>
</svg>