<svg width="48" height="48" viewBox="0 0 48 48" xmlns="http://www.w3.org/2000/svg">
<path d="M 14.400391 0 C 6.4228136 1.1842343e-15 4.7369468e-15 6.4228136 0 14.400391 L 0 33.599609 C 1.1842343e-15 41.577185 6.4228136 48 14.400391 48 L 33.599609 48 C 41.577185 48 48 41.577185 48 33.599609 L 48 14.400391 C 48 6.4228136 41.577185 4.7369468e-15 33.599609 0 L 14.400391 0 z M 13.5 10.5 C 15.161998 10.5 16.5 11.838002 16.5 13.5 C 16.5 15.161998 15.161998 16.5 13.5 16.5 C 11.838002 16.5 10.5 15.161998 10.5 13.5 C 10.5 11.838002 11.838002 10.5 13.5 10.5 z M 37.736328 10.728516 C 38.023899 10.728516 38.310898 10.838242 38.53125 11.058594 C 38.971954 11.499296 38.971954 12.209687 38.53125 12.650391 L 13.380859 37.800781 C 12.940158 38.241485 12.229766 38.241485 11.789062 37.800781 C 11.348361 37.360079 11.348361 36.651639 11.789062 36.210938 L 36.941406 11.058594 C 37.161758 10.838242 37.448757 10.728516 37.736328 10.728516 z M 37.851562 26.341797 C 38.139134 26.341797 38.426133 26.451523 38.646484 26.671875 C 39.087188 27.112579 39.087188 27.821015 38.646484 28.261719 L 28.835938 38.074219 C 28.395234 38.514922 27.684843 38.514922 27.244141 38.074219 C 26.803437 37.633515 26.803437 36.923125 27.244141 36.482422 L 37.056641 26.671875 C 37.276992 26.451523 37.563992 26.341797 37.851562 26.341797 z " />
</svg>