<svg width="42" height="43" viewBox="0 0 42 43" xmlns="http://www.w3.org/2000/svg">
<path d="M0 7.04918H38.4407V13.3934H0V7.04918Z"/>
<path d="M4.27119 2.81967H10.678V35.2459H4.27119V2.81967Z"/>
<path d="M16.3729 7.04918H23.4915V39.4754H16.3729V7.04918Z"/>
<path d="M42 10.2213C42 11.9732 40.5658 13.3934 38.7966 13.3934C37.0274 13.3934 35.5932 11.9732 35.5932 10.2213C35.5932 8.46939 37.0274 7.04918 38.7966 7.04918C40.5658 7.04918 42 8.46939 42 10.2213Z"/>
<path d="M23.4915 39.4754C23.4915 41.422 21.898 43 19.9322 43C17.9664 43 16.3729 41.422 16.3729 39.4754C16.3729 37.5288 17.9664 35.9508 19.9322 35.9508C21.898 35.9508 23.4915 37.5288 23.4915 39.4754Z"/>
<path d="M10.678 34.8934C10.678 36.6454 9.24376 38.0656 7.47458 38.0656C5.70539 38.0656 4.27119 36.6454 4.27119 34.8934C4.27119 33.1415 5.70539 31.7213 7.47458 31.7213C9.24376 31.7213 10.678 33.1415 10.678 34.8934Z"/>
<path d="M10.678 3.17213C10.678 4.92405 9.24376 6.34426 7.47458 6.34426C5.70539 6.34426 4.27119 4.92405 4.27119 3.17213C4.27119 1.42021 5.70539 0 7.47458 0C9.24376 0 10.678 1.42021 10.678 3.17213Z"/>
</svg>
