<?xml version="1.0" standalone="no"?>
<!DOCTYPE svg PUBLIC "-//W3C//DTD SVG 20010904//EN" "http://www.w3.org/TR/2001/REC-SVG-20010904/DTD/svg10.dtd">
<svg version="1.0" xmlns="http://www.w3.org/2000/svg"
  width="866.000000pt" height="650.000000pt" viewBox="0 0 866.000000 650.000000"
  preserveAspectRatio="xMidYMid meet">

  <g transform="translate(0.000000,650.000000) scale(0.100000,-0.100000)">
    <path
      d="M2830 6243 c-387 -38 -729 -195 -998 -457 -283 -274 -447 -613 -492
-1011 -13 -120 -13 -2926 0 -3053 61 -578 409 -1069 933 -1317 123 -58 225
-93 374 -127 l98 -22 1525 -4 c1102 -2 1551 0 1620 8 704 85 1270 611 1412
1313 l23 112 0 1570 0 1570 -23 105 c-159 722 -724 1234 -1444 1310 -85 9
-2940 12 -3028 3z m-240 -2072 c110 -58 108 -216 -3 -272 -76 -40 -168 -17
-221 55 -29 38 -29 124 0 163 53 72 148 95 224 54z m1585 -90 c130 -36 208
-83 311 -186 78 -78 99 -106 138 -187 25 -52 58 -139 73 -194 25 -92 27 -114
27 -304 0 -191 -2 -212 -27 -305 -94 -353 -324 -557 -673 -596 -114 -12 -264
2 -370 35 -356 113 -552 457 -531 931 8 168 39 295 108 434 139 282 419 426
779 400 47 -3 121 -16 165 -28z m1762 -4 c178 -62 306 -184 354 -338 10 -33
19 -74 19 -90 l0 -29 -128 0 -127 0 -13 41 c-38 123 -150 200 -310 215 -141
13 -295 -39 -353 -119 -52 -72 -57 -184 -11 -246 49 -67 120 -96 402 -167 334
-84 453 -152 526 -299 32 -65 37 -86 42 -167 8 -159 -34 -282 -130 -384 -96
-102 -228 -161 -408 -184 -301 -38 -583 64 -706 256 -39 61 -74 160 -74 209
l0 35 130 0 130 0 6 -27 c38 -157 223 -256 449 -240 149 11 258 70 308 167 24
47 28 63 24 112 -3 37 -13 68 -30 93 -55 80 -134 116 -415 185 -232 57 -297
81 -382 141 -105 73 -162 174 -176 311 -21 207 86 395 278 487 121 58 194 71
373 67 129 -3 160 -7 222 -29z m-3303 -444 c-1 -7 -2 -301 -2 -653 l-2 -640
-125 0 -125 0 0 655 0 656 128 -3 c94 -2 127 -6 126 -15z" />
    <path
      d="M3835 3859 c-140 -21 -283 -125 -352 -254 -121 -230 -116 -597 12
-810 65 -107 140 -171 248 -210 198 -72 410 -25 547 122 70 74 109 148 141
268 18 66 22 107 22 235 0 174 -17 262 -74 378 -36 73 -124 172 -186 209 -95
55 -239 81 -358 62z" />
  </g>
</svg>