<svg width="30" height="30" viewBox="0 0 30 30" fill="none" xmlns="http://www.w3.org/2000/svg">
<path fill-rule="evenodd" clip-rule="evenodd" d="M12.7571 4.48571V8.98832C8.19831 8.98832 4.50264 12.6842 4.50264 17.243C4.50264 21.8018 8.19831 25.4977 12.7571 25.4977C17.3162 25.4977 21.0119 21.8018 21.0119 17.243H25.5145C25.5145 24.2882 19.8027 30 12.7571 30C5.7115 30 0 24.2882 0 17.243C0 10.1975 5.7115 4.48571 12.7571 4.48571Z"/>
<path fill-rule="evenodd" clip-rule="evenodd" d="M12.7571 4.48571L12.7571 0.752447C12.7571 0.325293 13.114 -0.0180768 13.5406 0.000737996C22.4497 0.398788 29.6015 7.55075 29.9992 16.4592C30.0186 16.8864 29.6752 17.243 29.2481 17.243H25.5145C25.5145 10.1975 19.803 4.48571 12.7571 4.48571Z"/>
<path fill-rule="evenodd" clip-rule="evenodd" d="M12.7571 8.98832V4.48571C19.803 4.48571 25.5145 10.1975 25.5145 17.243H21.0119C21.0119 12.6842 17.3162 8.98832 12.7571 8.98832Z" fill="#33334E" fill-opacity="0.4"/>
<path fill-rule="evenodd" clip-rule="evenodd" d="M12.7571 20.9948C14.8294 20.9948 16.5095 19.315 16.5095 17.2428C16.5095 15.1705 14.8294 13.491 12.7571 13.491C10.6848 13.491 9.005 15.1705 9.005 17.2428C9.005 19.315 10.6848 20.9948 12.7571 20.9948Z"/>
</svg>
