<svg width="56" height="52" viewBox="0 0 56 52" xmlns="http://www.w3.org/2000/svg">
  <path fill-rule="evenodd" clip-rule="evenodd"
    d="M56 6C56 9.31371 53.3137 12 50 12C47.0884 12 44.6612 9.9261 44.115 7.17494C42.7581 7.64113 41.7026 8.29596 40.8432 9.05588C39.0444 10.6464 37.9394 12.8321 36.85 15.3409C36.7009 15.6844 36.5513 16.0362 36.3995 16.3934L36.3989 16.3948L36.3985 16.3957L36.3985 16.3958L36.3985 16.3958L36.3984 16.3959C35.4866 18.5411 34.4917 20.8816 33.001 22.7975C32.6727 23.2194 32.3206 23.6215 31.9406 24H44.3414C45.1651 21.6696 47.3876 20 50 20C53.3137 20 56 22.6863 56 26C56 29.3137 53.3137 32 50 32C47.3876 32 45.1651 30.3304 44.3414 28H31.5924C32.1079 28.4728 32.5746 28.9874 33.001 29.5354C34.4917 31.4514 35.4866 33.7919 36.3985 35.9371C36.5506 36.2952 36.7005 36.6477 36.85 36.992C37.9394 39.5009 39.0444 41.6866 40.8432 43.2771C41.6912 44.0269 42.7301 44.6745 44.0613 45.1394C44.4787 42.2334 46.9785 40 50 40C53.3137 40 56 42.6863 56 46C56 49.3137 53.3137 52 50 52C47.5352 52 45.4175 50.5138 44.4943 48.3886C42.1724 47.8284 40.3401 46.8368 38.8559 45.5245C36.5159 43.4554 35.1952 40.7131 34.0982 38.1869C33.9311 37.8021 33.7696 37.4237 33.6111 37.0523L33.611 37.0522L33.6109 37.0519C32.6866 34.8868 31.8635 32.9589 30.6332 31.3777C29.3069 29.6729 27.5065 28.3922 24.4833 28H6.12132L12.6066 34.4853C13.1924 35.0711 13.1924 36.0208 12.6066 36.6066C12.0208 37.1924 11.0711 37.1924 10.4853 36.6066L0.939339 27.0607C0.353554 26.4749 0.353554 25.5251 0.939339 24.9393L10.4853 15.3934C11.0711 14.8076 12.0208 14.8076 12.6066 15.3934C13.1924 15.9792 13.1924 16.9289 12.6066 17.5147L6.12131 24H26.1379C28.1995 23.4181 29.5689 22.3232 30.6332 20.9553C31.8635 19.3741 32.6866 17.4461 33.6109 15.2811C33.7695 14.9096 33.9311 14.531 34.0982 14.1461C35.1952 11.6198 36.5159 8.87754 38.8559 6.80844C40.3089 5.52371 42.0955 4.54639 44.3484 3.98026C45.1776 1.66019 47.3949 0 50 0C53.3137 0 56 2.68629 56 6Z" />
</svg>
  