<svg xmlns="http://www.w3.org/2000/svg" id="Layer_2" data-name="Layer 2" viewBox="0 0 702.51 190.21"><g id="Layer_1-2" data-name="Layer 1"><path d="M0 20.77h60.69c46 0 53.28 31.04 53.28 51.9s-10.13 49.66-50.63 49.66h-11.4v43.96H0V20.77Zm57.23 65.74c9.77 0 14.65-4.27 14.65-12.82v-.81c0-8.35-4.68-12.01-14.45-12.01h-5.5v25.65h5.29ZM120.73 20.77h56.9c43.35 0 54.5 27.75 54.5 49.05s-8.34 31.34-21.37 38.47l29.92 58.01h-47.37l-22.59-46.2h-3.05v46.2h-46.93V20.77Zm53.04 65.34c10.58 0 15.27-4.27 15.27-12.82v-.81c0-7.94-4.68-11.4-14.86-11.4h-6.51v25.04h6.11ZM245.48 20.77h94.68v41.32h-44.74v12.42h33.14v37.45h-33.14v13.03h47.8v41.32h-97.73V20.77ZM673.41 90.05c16.08-3.46 26.05-13.64 26.05-31.55v-.81c0-19.54-12.01-38.26-50.27-38.26h-93.58c18.9 37.16 29.46 93.81 36.52 145.53h54.83c39.69 0 55.57-15.06 55.57-40.5v-.81c0-20.76-13.03-31.34-29.11-33.58Zm-47.42-35.82h10.58c8.75 0 12.01 3.46 12.01 9.97v.81c0 6.51-3.46 9.36-12.01 9.36h-10.58V54.22Zm23.2 63.91c0 7.33-4.27 11.81-13.43 11.81h-9.77v-24.22h9.16c10.18 0 14.04 4.27 14.04 11.6v.81ZM454.05 81.3h-45.1V60.95h50.57c7.58-26.27 15.89-41.52 15.89-41.52h-120.8v145.53h54.34v-44.37h36.79c4.28-23.57 8.31-39.28 8.31-39.28ZM515.48 0c-42.24 0-61.63 155.27-65.47 188.47-.19 1.62 1.91 2.39 2.83 1.05 8.46-12.3 31.43-45.82 62.64-45.82s54.18 33.51 62.64 45.82c.92 1.34 3.02.56 2.83-1.05C577.11 155.27 557.72 0 515.48 0Zm16.11 81.56h-32.21V70.87c0-3.89 3.16-7.05 7.05-7.05h18.12c3.89 0 7.05 3.16 7.05 7.05v10.69Z" fill="currentColor"/></g></svg>