<?xml version="1.0" encoding="UTF-8"?>
<svg xmlns="http://www.w3.org/2000/svg" viewBox="0 0 250 250">
  <g transform="matrix(1, 0, 0, 1, 25, 1)">
    <polygon points="137.64 0 0 78.15 0 79.32 0 124.63 137.64 46.51 137.64 0" />
    <polygon points="137.64 157.57 137.64 204.19 137.67 204.21 193.96 172.25 152.87 148.92 137.64 157.57" />
    <polygon points="61.82 200.62 61.82 247.28 131.33 207.81 90.24 184.48 61.82 200.62" />
    <polygon points="109 69.95 67.91 93.27 199.45 168.17 199.45 167.96 199.45 122.47 199.45 121.31 109 69.95" />
    <polygon points="131.33 153.89 46.24 105.57 5.15 128.9 131.33 200.62 131.33 153.89" />
  </g>
</svg>