<svg width="400" height="400" viewBox="0 0 400 400" xmlns="http://www.w3.org/2000/svg">
  <g>
    <path fill-rule="evenodd" clip-rule="evenodd"
      d="M292.026 24H107.921C102.238 24 97.0322 27.0316 94.1638 31.9247L2.11141 191.643C-0.703805 196.536 -0.703805 202.598 2.11141 207.545L94.1638 367.21C96.9791 372.104 102.238 375.135 107.921 375.135H292.079C297.762 375.135 302.969 372.104 305.837 367.21L397.889 207.545C400.704 202.652 400.704 196.588 397.889 191.643L305.784 31.9247C302.969 27.0316 297.71 24 292.026 24ZM337.019 136.008C336.169 134.945 334.789 134.519 333.513 134.838L264.779 151.273C263.557 151.539 262.602 152.39 262.23 153.56C261.805 154.73 262.072 156.007 262.868 156.964L273.916 170.1L225.632 212.384L180.695 161.431C178.782 159.251 175.383 159.038 173.205 160.952L106.597 219.031C103.356 217.861 99.9037 217.17 96.2917 217.17C79.666 217.17 66.1211 230.733 66.1211 247.381C66.1211 264.027 79.666 277.589 96.2917 277.589C112.917 277.589 126.462 264.027 126.462 247.381C126.462 245.146 126.197 242.966 125.719 240.838L174.587 198.236L220.534 250.358C221.914 251.9 224.305 252.061 225.844 250.677L292.56 192.279L303.556 205.416C304.246 206.214 305.202 206.693 306.264 206.693H306.743C307.965 206.534 308.973 205.736 309.504 204.618L337.603 139.678C338.134 138.455 337.922 137.072 337.072 136.008H337.019Z"
    />
  </g>
</svg>
  