<svg class="tggl-logo" width="54" height="33.207756232686975" viewBox="0 0 361 222" xmlns="http://www.w3.org/2000/svg">
  <path
    d="M263.144 110.996C263.144 122.738 253.626 132.256 241.885 132.256C230.143 132.256 220.625 122.738 220.625 110.996C220.625 99.2552 230.143 89.7371 241.885 89.7371C253.626 89.7371 263.144 99.2552 263.144 110.996Z">
  </path>
  <path fill-rule="evenodd" clip-rule="evenodd"
    d="M199.368 166.545C199.368 176.812 197.302 186.079 193.168 194.345C189.168 202.745 182.968 209.412 174.568 214.345C166.302 219.279 155.968 221.745 143.568 221.745C127.035 221.745 113.635 217.812 103.368 209.945C99.2911 206.874 95.9078 203.361 93.2185 199.407L121.76 183.335C123.087 185.308 124.89 186.978 127.168 188.345C131.168 190.879 136.102 192.145 141.968 192.145C149.035 192.145 154.635 190.079 158.768 185.945C163.035 181.945 165.168 175.479 165.168 166.545V164.614C158.399 167.053 151.049 168.39 143.368 168.39C109.679 168.39 82.3682 142.681 82.3682 110.967C82.3682 79.254 109.679 53.5452 143.368 53.5452C162.145 53.5452 178.94 61.531 190.129 74.0915C201.319 61.531 218.114 53.5452 236.891 53.5452C247.856 53.5452 258.145 56.2687 267.037 61.0364V55.1453H301.237V166.545C301.237 176.812 299.171 186.079 295.037 194.345C291.037 202.745 284.837 209.412 276.437 214.345C268.171 219.279 257.837 221.745 245.437 221.745C228.904 221.745 215.504 217.812 205.237 209.945C201.16 206.874 197.777 203.361 195.088 199.407L223.629 183.335C224.956 185.308 226.759 186.978 229.037 188.345C233.037 190.879 237.971 192.145 243.837 192.145C250.904 192.145 256.504 190.079 260.637 185.945C264.904 181.945 267.037 175.479 267.037 166.545V160.898C258.145 165.666 247.856 168.39 236.891 168.39C222.741 168.39 209.717 163.855 199.368 156.244V166.545ZM241.884 76.345H148.68C129.543 76.345 114.029 91.8589 114.029 110.996C114.029 130.134 129.543 145.648 148.68 145.648H241.885C261.022 145.648 276.536 130.134 276.536 110.996C276.536 91.8589 261.022 76.345 241.884 76.345Z">
  </path>
  <path
    d="M70.4 138V167H53C40.6 167 30.9333 164 24 158C17.0667 151.867 13.6 141.933 13.6 128.2V83.7999H0V55.3999H13.6V28.2H47.8V55.3999H70.2V83.7999H47.8V128.6C47.8 131.933 48.6 134.333 50.2 135.8C51.8 137.267 54.4667 138 58.2 138H70.4Z">
  </path>
  <path d="M360.491 19V167H326.291V22.4884L360.491 19Z"></path>
</svg>