<svg width="32" height="32" viewBox="0 0 171 57" xmlns="http://www.w3.org/2000/svg">
  <path
    d="M142.939 0.490234C141.896 0.490234 140.643 0.490234 139.599 0.698012L133.546 11.2947C136.259 9.63245 139.599 8.80134 142.939 8.80134C153.794 8.80134 162.77 17.7358 162.77 28.5402C162.77 39.3447 153.794 48.2791 142.939 48.2791C132.084 48.2791 123.317 39.5524 123.108 28.748L116.846 39.3447C121.021 49.5258 131.249 56.5902 142.731 56.5902C158.178 56.5902 170.912 43.9158 170.912 28.5402C171.12 13.1647 158.387 0.490234 142.939 0.490234Z" />
  <path
    d="M57.769 29.7869L62.5702 21.4758L73.4252 39.968L85.9501 18.5669L98.475 39.968L119.976 3.6069C121.02 1.7369 123.107 0.490234 125.404 0.490234H131.457L98.475 56.5902L85.9501 35.1891L73.4252 56.5902L57.769 29.7869Z" />
  <path
    d="M66.7438 0.48999L33.7616 56.59L0.988037 0.48999H7.04174C9.33798 0.48999 11.4255 1.73666 12.4692 3.60666L33.7616 40.1755L55.2626 3.60666C56.3064 1.73666 58.3939 0.48999 60.6901 0.48999H66.7438Z" />
</svg>
