<svg xmlns="http://www.w3.org/2000/svg" viewBox="5.52 5.02 388.96 388.96" enable-background="new 0 0 400 400" xmlnsV="https://vecta.io/nano"><path d="M66.7 261.9H13.2v124.7h124.7v-53.4H66.7zm267.1.4v70.9h-70.9l-.3-.4v53.8h124.6V261.9h-53.8zm-320.6-125h53.9l-.4-.4V66h70.8l.4.4V12.6H13.2zM262.6 12.6V66h71.2v71.3h53.4V12.6z" fill="#446ca9"/><path d="M256 137.3L184.7 66h77.9V12.6H137.9v53.8l70.8 70.9zm-64.3 124.6h-47.2l59 59.1 12.2 12.2h-77.8v53.4h124.7v-53.8l-35.5-35.5zm142.1-124.6v77.8l-12.2-12.2-59-59v47.2l35.4 35.4 35.4 35.4h53.8V137.3zm-195.9 70.8l-70.8-70.8H13.2v124.6h53.5v-77.8l71.2 71.2z" fill="#76c4d5"/></svg>