<svg xmlns="http://www.w3.org/2000/svg" fill="none" viewBox="0 0 452 68"><path fill="#231F20" d="M25.64.28H54a25.25 25.25 0 0 1 0 50.5H25.64a25.25 25.25 0 0 1 0-50.5Zm-.11 43.85a18.6 18.6 0 1 0-18.6-18.6 18.59 18.59 0 0 0 18.64 18.6h-.04ZM99.07 13.47a16.61 16.61 0 0 1 8.62-2.19 17.738 17.738 0 0 1 9.17 2.43 17.09 17.09 0 0 1 6.47 6.82 21.294 21.294 0 0 1 2.36 10.21A21.755 21.755 0 0 1 123.33 41a17.235 17.235 0 0 1-15.64 9.49 16.55 16.55 0 0 1-8.55-2.18 15.73 15.73 0 0 1-5.65-5.44v25h-6.3V11.91h6.3v7a15 15 0 0 1 5.58-5.44Zm18.45 9.79a12.093 12.093 0 0 0-4.68-4.85 13 13 0 0 0-6.47-1.66 12.589 12.589 0 0 0-6.4 1.7 12.46 12.46 0 0 0-4.71 4.91 16.69 16.69 0 0 0 0 15 12.46 12.46 0 0 0 4.71 4.91 12.589 12.589 0 0 0 6.4 1.7 12.74 12.74 0 0 0 6.47-1.7 12.252 12.252 0 0 0 4.68-4.91 15.846 15.846 0 0 0 1.73-7.58c.067-2.613-.528-5.2-1.73-7.52ZM165.7 33.23h-30.32a11.92 11.92 0 0 0 12.32 11.91 11.671 11.671 0 0 0 6.82-1.91 10.083 10.083 0 0 0 3.84-5.09h6.78a16.243 16.243 0 0 1-6.09 8.9 18.4 18.4 0 0 1-11.35 3.43A19.15 19.15 0 0 1 138 48a17.164 17.164 0 0 1-6.68-6.88 21.434 21.434 0 0 1-2.42-10.35 21.682 21.682 0 0 1 2.35-10.32 16.645 16.645 0 0 1 6.61-6.82 19.727 19.727 0 0 1 9.8-2.39 19 19 0 0 1 9.55 2.36 16.353 16.353 0 0 1 6.41 6.47 19.117 19.117 0 0 1 2.25 9.31 36.66 36.66 0 0 1-.17 3.85Zm-7.89-11.32a10.447 10.447 0 0 0-4.33-3.95 13.476 13.476 0 0 0-6.06-1.35 11.68 11.68 0 0 0-8.13 3 12.4 12.4 0 0 0-3.84 8.45h23.95a11.653 11.653 0 0 0-1.59-6.15ZM201.21 15.4c2.86 2.8 4.29 6.827 4.29 12.08v22.36h-6.23V28.38c0-3.78-.94-6.68-2.83-8.68a10.158 10.158 0 0 0-7.76-3 10.356 10.356 0 0 0-7.92 3.12c-2 2.08-2.983 5.103-2.95 9.07v21h-6.3V11.91h6.3v5.4a12.553 12.553 0 0 1 5.09-4.5 15.81 15.81 0 0 1 7.1-1.59 15.367 15.367 0 0 1 11.21 4.18ZM240.4 1.59v5.13h-21V23h17v5.13h-17v21.73h-6.3V1.59h27.3ZM279.72 33.23h-30.33a11.938 11.938 0 0 0 12.33 11.91 11.671 11.671 0 0 0 6.82-1.91 10.083 10.083 0 0 0 3.84-5.09h6.78a16.237 16.237 0 0 1-6.09 8.9 18.42 18.42 0 0 1-11.35 3.43 19.15 19.15 0 0 1-9.66-2.43 17.084 17.084 0 0 1-6.68-6.88A21.332 21.332 0 0 1 243 30.81a21.682 21.682 0 0 1 2.35-10.32 16.592 16.592 0 0 1 6.61-6.82 19.7 19.7 0 0 1 9.8-2.39 19.001 19.001 0 0 1 9.55 2.36 16.41 16.41 0 0 1 6.41 6.47 19.219 19.219 0 0 1 2.24 9.31 36.755 36.755 0 0 1-.24 3.81Zm-7.9-11.32A10.36 10.36 0 0 0 267.5 18a13.513 13.513 0 0 0-6.06-1.35 11.67 11.67 0 0 0-8.13 3 12.452 12.452 0 0 0-3.85 8.45h24a11.558 11.558 0 0 0-1.64-6.19ZM285.53 20.53a17.09 17.09 0 0 1 6.47-6.82 17.748 17.748 0 0 1 9.18-2.43 16.85 16.85 0 0 1 8.65 2.15 14.264 14.264 0 0 1 5.47 5.4v-6.92h6.37v37.93h-6.37v-7.06a14.876 14.876 0 0 1-5.57 5.51 16.73 16.73 0 0 1-8.62 2.18A17.209 17.209 0 0 1 292 48a17.587 17.587 0 0 1-6.44-7 21.732 21.732 0 0 1-2.35-10.24 21.283 21.283 0 0 1 2.32-10.23Zm28 2.8a12.209 12.209 0 0 0-4.67-4.88 13.24 13.24 0 0 0-12.91 0 12.07 12.07 0 0 0-4.64 4.85 15.353 15.353 0 0 0-1.73 7.48 15.748 15.748 0 0 0 1.73 7.58 12.23 12.23 0 0 0 4.64 4.91 12.512 12.512 0 0 0 6.43 1.7 12.77 12.77 0 0 0 6.48-1.7 12.168 12.168 0 0 0 4.67-4.91 15.686 15.686 0 0 0 1.73-7.51 15.48 15.48 0 0 0-1.69-7.52h-.04ZM337.31 17.1v22.36a5.32 5.32 0 0 0 1.18 3.91c.78.76 2.15 1.14 4.09 1.14h4.63v5.33h-5.67c-3.51 0-6.14-.8-7.9-2.42-1.76-1.62-2.63-4.27-2.63-8V17.1h-4.91v-5.19h4.9V2.35h6.3v9.56h9.9v5.19h-9.89ZM385.77 11.91v37.93h-6.3v-5.6a12.186 12.186 0 0 1-5 4.53 15.54 15.54 0 0 1-7.09 1.63 16.891 16.891 0 0 1-8-1.84 13.26 13.26 0 0 1-5.58-5.5 18.144 18.144 0 0 1-2-8.93V11.91h6.2V33.3c0 3.74.947 6.613 2.84 8.62a10.126 10.126 0 0 0 7.75 3 10.37 10.37 0 0 0 8-3.12c1.93-2.07 2.9-5.1 2.9-9.07V11.91h6.28ZM404.78 13a14.53 14.53 0 0 1 7.51-1.8v6.5h-1.66c-7.073 0-10.607 3.83-10.6 11.49v20.63h-6.3V11.91H400v6.16a12.064 12.064 0 0 1 4.78-5.07ZM451.26 33.23h-30.32a11.92 11.92 0 0 0 12.32 11.91c2.417.088 4.801-.58 6.82-1.91a9.999 9.999 0 0 0 3.84-5.09h6.79a16.337 16.337 0 0 1-6.09 8.9 18.431 18.431 0 0 1-11.36 3.43 19.08 19.08 0 0 1-9.65-2.43 17.085 17.085 0 0 1-6.68-6.88 21.32 21.32 0 0 1-2.43-10.35 21.686 21.686 0 0 1 2.36-10.32 16.521 16.521 0 0 1 6.61-6.82 19.691 19.691 0 0 1 9.79-2.39 19.06 19.06 0 0 1 9.56 2.36 16.32 16.32 0 0 1 6.4 6.47 19.117 19.117 0 0 1 2.25 9.31 36.737 36.737 0 0 1-.21 3.81Zm-7.89-11.32A10.326 10.326 0 0 0 439 18a13.47 13.47 0 0 0-6-1.35 11.689 11.689 0 0 0-8.14 3 12.4 12.4 0 0 0-3.84 8.45h24a11.649 11.649 0 0 0-1.65-6.19Z"/></svg>